STARTFONT 2.1
FONT -IBM-EGA-Normal-R-Normal--14-100-96-96-C-80-ISO10646-1
SIZE 10 96 96
FONTBOUNDINGBOX 8 14 0 -3
STARTPROPERTIES 34
FOUNDRY "IBM"
FAMILY_NAME "IBM EGA 8x14"
WEIGHT_NAME "Normal"
SLANT "R"
SETWIDTH_NAME "Normal"
ADD_STYLE_NAME ""
PIXEL_SIZE 14
POINT_SIZE 100
RESOLUTION_X 96
RESOLUTION_Y 96
SPACING "C"
AVERAGE_WIDTH 80
CHARSET_REGISTRY "ISO10646"
CHARSET_ENCODING "1"
FONTNAME_REGISTRY ""
CHARSET_COLLECTIONS "ASCII ISOLatin1Encoding ISO8859-2 ISO8859-5 ISO8859-7 ISO8859-9 ISO8859-8 ISO8859-4 ISO10646-1"
FONT_NAME "IBMEGA8x14"
FACE_NAME "IBM EGA 8x14"
COPYRIGHT "BDF conversion (c) 2016 farsil, license: CC BY-SA 4.0"
FONT_VERSION "001.000"
FONT_ASCENT 11
FONT_DESCENT 3
UNDERLINE_POSITION -1
UNDERLINE_THICKNESS 1
X_HEIGHT 6
CAP_HEIGHT 9
RAW_ASCENT 825
RAW_DESCENT 225
NORM_SPACE 8
RELATIVE_WEIGHT 50
RELATIVE_SETWIDTH 50
FIGURE_WIDTH 8
AVG_LOWERCASE_WIDTH 80
AVG_UPPERCASE_WIDTH 80
ENDPROPERTIES
CHARS 782
STARTCHAR uni0000.dup1
ENCODING 0
SWIDTH 500 0
DWIDTH 8 0
BBX 1 1 0 0
BITMAP
00
ENDCHAR
STARTCHAR uni0001
ENCODING 1
SWIDTH 500 0
DWIDTH 8 0
BBX 8 9 0 0
BITMAP
7E
81
A5
81
81
BD
99
81
7E
ENDCHAR
STARTCHAR uni0002
ENCODING 2
SWIDTH 500 0
DWIDTH 8 0
BBX 8 9 0 0
BITMAP
7E
FF
DB
FF
FF
C3
E7
FF
7E
ENDCHAR
STARTCHAR uni0003
ENCODING 3
SWIDTH 500 0
DWIDTH 8 0
BBX 7 8 0 0
BITMAP
6C
FE
FE
FE
FE
7C
38
10
ENDCHAR
STARTCHAR uni0004
ENCODING 4
SWIDTH 500 0
DWIDTH 8 0
BBX 7 7 0 1
BITMAP
10
38
7C
FE
7C
38
10
ENDCHAR
STARTCHAR uni0005
ENCODING 5
SWIDTH 500 0
DWIDTH 8 0
BBX 8 9 0 0
BITMAP
18
3C
3C
E7
E7
E7
18
18
3C
ENDCHAR
STARTCHAR uni0006
ENCODING 6
SWIDTH 500 0
DWIDTH 8 0
BBX 8 9 0 0
BITMAP
18
3C
7E
FF
FF
7E
18
18
3C
ENDCHAR
STARTCHAR uni0007
ENCODING 7
SWIDTH 500 0
DWIDTH 8 0
BBX 4 4 2 2
BITMAP
60
F0
F0
60
ENDCHAR
STARTCHAR uni0008
ENCODING 8
SWIDTH 500 0
DWIDTH 8 0
BBX 8 14 0 -3
BITMAP
FF
FF
FF
FF
FF
E7
C3
C3
E7
FF
FF
FF
FF
FF
ENDCHAR
STARTCHAR uni0009
ENCODING 9
SWIDTH 500 0
DWIDTH 8 0
BBX 6 6 1 1
BITMAP
78
CC
84
84
CC
78
ENDCHAR
STARTCHAR uni000A
ENCODING 10
SWIDTH 500 0
DWIDTH 8 0
BBX 8 14 0 -3
BITMAP
FF
FF
FF
FF
C3
99
BD
BD
99
C3
FF
FF
FF
FF
ENDCHAR
STARTCHAR uni000B
ENCODING 11
SWIDTH 500 0
DWIDTH 8 0
BBX 7 9 0 0
BITMAP
1E
0E
1A
32
78
CC
CC
CC
78
ENDCHAR
STARTCHAR uni000C
ENCODING 12
SWIDTH 500 0
DWIDTH 8 0
BBX 6 9 1 0
BITMAP
78
CC
CC
CC
78
30
FC
30
30
ENDCHAR
STARTCHAR uni000D
ENCODING 13
SWIDTH 500 0
DWIDTH 8 0
BBX 8 9 0 0
BITMAP
3F
33
3F
30
30
30
70
F0
E0
ENDCHAR
STARTCHAR uni000E
ENCODING 14
SWIDTH 500 0
DWIDTH 8 0
BBX 8 10 0 -1
BITMAP
7F
63
7F
63
63
63
67
E7
E6
C0
ENDCHAR
STARTCHAR uni000F
ENCODING 15
SWIDTH 500 0
DWIDTH 8 0
BBX 8 9 0 0
BITMAP
18
18
DB
3C
E7
3C
DB
18
18
ENDCHAR
STARTCHAR uni0010
ENCODING 16
SWIDTH 500 0
DWIDTH 8 0
BBX 7 9 0 0
BITMAP
80
C0
E0
F8
FE
F8
E0
C0
80
ENDCHAR
STARTCHAR uni0011
ENCODING 17
SWIDTH 500 0
DWIDTH 8 0
BBX 7 9 0 0
BITMAP
02
06
0E
3E
FE
3E
0E
06
02
ENDCHAR
STARTCHAR uni0012
ENCODING 18
SWIDTH 500 0
DWIDTH 8 0
BBX 6 9 1 0
BITMAP
30
78
FC
30
30
30
FC
78
30
ENDCHAR
STARTCHAR uni0013
ENCODING 19
SWIDTH 500 0
DWIDTH 8 0
BBX 6 9 1 0
BITMAP
CC
CC
CC
CC
CC
CC
00
CC
CC
ENDCHAR
STARTCHAR uni0014
ENCODING 20
SWIDTH 500 0
DWIDTH 8 0
BBX 8 9 0 0
BITMAP
7F
DB
DB
DB
7B
1B
1B
1B
1B
ENDCHAR
STARTCHAR uni0015
ENCODING 21
SWIDTH 500 0
DWIDTH 8 0
BBX 7 12 0 -2
BITMAP
7C
C6
60
38
6C
C6
C6
6C
38
0C
C6
7C
ENDCHAR
STARTCHAR uni0016
ENCODING 22
SWIDTH 500 0
DWIDTH 8 0
BBX 7 3 0 0
BITMAP
FE
FE
FE
ENDCHAR
STARTCHAR uni0017
ENCODING 23
SWIDTH 500 0
DWIDTH 8 0
BBX 6 10 1 -1
BITMAP
30
78
FC
30
30
30
FC
78
30
FC
ENDCHAR
STARTCHAR uni0018
ENCODING 24
SWIDTH 500 0
DWIDTH 8 0
BBX 6 9 1 0
BITMAP
30
78
FC
30
30
30
30
30
30
ENDCHAR
STARTCHAR uni0019
ENCODING 25
SWIDTH 500 0
DWIDTH 8 0
BBX 6 9 1 0
BITMAP
30
30
30
30
30
30
FC
78
30
ENDCHAR
STARTCHAR uni001A
ENCODING 26
SWIDTH 500 0
DWIDTH 8 0
BBX 7 5 0 2
BITMAP
18
0C
FE
0C
18
ENDCHAR
STARTCHAR uni001B
ENCODING 27
SWIDTH 500 0
DWIDTH 8 0
BBX 7 5 0 2
BITMAP
30
60
FE
60
30
ENDCHAR
STARTCHAR uni001C
ENCODING 28
SWIDTH 500 0
DWIDTH 8 0
BBX 7 4 0 2
BITMAP
C0
C0
C0
FE
ENDCHAR
STARTCHAR uni001D
ENCODING 29
SWIDTH 500 0
DWIDTH 8 0
BBX 7 5 0 2
BITMAP
28
6C
FE
6C
28
ENDCHAR
STARTCHAR uni001E
ENCODING 30
SWIDTH 500 0
DWIDTH 8 0
BBX 7 7 0 1
BITMAP
10
38
38
7C
7C
FE
FE
ENDCHAR
STARTCHAR uni001F
ENCODING 31
SWIDTH 500 0
DWIDTH 8 0
BBX 7 7 0 1
BITMAP
FE
FE
7C
7C
38
38
10
ENDCHAR
STARTCHAR space
ENCODING 32
SWIDTH 500 0
DWIDTH 8 0
BBX 1 1 0 0
BITMAP
00
ENDCHAR
STARTCHAR exclam
ENCODING 33
SWIDTH 500 0
DWIDTH 8 0
BBX 4 9 2 0
BITMAP
60
F0
F0
F0
60
60
00
60
60
ENDCHAR
STARTCHAR quotedbl
ENCODING 34
SWIDTH 500 0
DWIDTH 8 0
BBX 6 4 1 6
BITMAP
CC
CC
CC
48
ENDCHAR
STARTCHAR numbersign
ENCODING 35
SWIDTH 500 0
DWIDTH 8 0
BBX 7 9 0 0
BITMAP
6C
6C
FE
6C
6C
6C
FE
6C
6C
ENDCHAR
STARTCHAR dollar
ENCODING 36
SWIDTH 500 0
DWIDTH 8 0
BBX 7 13 0 -2
BITMAP
18
18
7C
C6
C2
C0
7C
06
86
C6
7C
18
18
ENDCHAR
STARTCHAR percent
ENCODING 37
SWIDTH 500 0
DWIDTH 8 0
BBX 7 7 0 0
BITMAP
C2
C6
0C
18
30
66
C6
ENDCHAR
STARTCHAR ampersand
ENCODING 38
SWIDTH 500 0
DWIDTH 8 0
BBX 7 9 0 0
BITMAP
38
6C
6C
38
76
DC
CC
CC
76
ENDCHAR
STARTCHAR quotesingle
ENCODING 39
SWIDTH 500 0
DWIDTH 8 0
BBX 3 4 1 6
BITMAP
60
60
60
C0
ENDCHAR
STARTCHAR parenleft
ENCODING 40
SWIDTH 500 0
DWIDTH 8 0
BBX 4 9 2 0
BITMAP
30
60
C0
C0
C0
C0
C0
60
30
ENDCHAR
STARTCHAR parenright
ENCODING 41
SWIDTH 500 0
DWIDTH 8 0
BBX 4 9 2 0
BITMAP
C0
60
30
30
30
30
30
60
C0
ENDCHAR
STARTCHAR asterisk
ENCODING 42
SWIDTH 500 0
DWIDTH 8 0
BBX 8 5 0 2
BITMAP
66
3C
FF
3C
66
ENDCHAR
STARTCHAR plus
ENCODING 43
SWIDTH 500 0
DWIDTH 8 0
BBX 6 5 1 2
BITMAP
30
30
FC
30
30
ENDCHAR
STARTCHAR comma
ENCODING 44
SWIDTH 500 0
DWIDTH 8 0
BBX 3 4 2 -1
BITMAP
60
60
60
C0
ENDCHAR
STARTCHAR hyphen
ENCODING 45
SWIDTH 500 0
DWIDTH 8 0
BBX 7 1 0 4
BITMAP
FE
ENDCHAR
STARTCHAR period
ENCODING 46
SWIDTH 500 0
DWIDTH 8 0
BBX 2 2 3 0
BITMAP
C0
C0
ENDCHAR
STARTCHAR slash
ENCODING 47
SWIDTH 500 0
DWIDTH 8 0
BBX 7 8 0 1
BITMAP
02
06
0C
18
30
60
C0
80
ENDCHAR
STARTCHAR zero
ENCODING 48
SWIDTH 500 0
DWIDTH 8 0
BBX 7 9 0 0
BITMAP
7C
C6
CE
DE
F6
E6
C6
C6
7C
ENDCHAR
STARTCHAR one
ENCODING 49
SWIDTH 500 0
DWIDTH 8 0
BBX 6 9 1 0
BITMAP
30
70
F0
30
30
30
30
30
FC
ENDCHAR
STARTCHAR two
ENCODING 50
SWIDTH 500 0
DWIDTH 8 0
BBX 7 9 0 0
BITMAP
7C
C6
06
0C
18
30
60
C6
FE
ENDCHAR
STARTCHAR three
ENCODING 51
SWIDTH 500 0
DWIDTH 8 0
BBX 7 9 0 0
BITMAP
7C
C6
06
06
3C
06
06
C6
7C
ENDCHAR
STARTCHAR four
ENCODING 52
SWIDTH 500 0
DWIDTH 8 0
BBX 7 9 0 0
BITMAP
0C
1C
3C
6C
CC
FE
0C
0C
1E
ENDCHAR
STARTCHAR five
ENCODING 53
SWIDTH 500 0
DWIDTH 8 0
BBX 7 9 0 0
BITMAP
FE
C0
C0
C0
FC
06
06
C6
7C
ENDCHAR
STARTCHAR six
ENCODING 54
SWIDTH 500 0
DWIDTH 8 0
BBX 7 9 0 0
BITMAP
38
60
C0
C0
FC
C6
C6
C6
7C
ENDCHAR
STARTCHAR seven
ENCODING 55
SWIDTH 500 0
DWIDTH 8 0
BBX 7 9 0 0
BITMAP
FE
C6
06
0C
18
30
30
30
30
ENDCHAR
STARTCHAR eight
ENCODING 56
SWIDTH 500 0
DWIDTH 8 0
BBX 7 9 0 0
BITMAP
7C
C6
C6
C6
7C
C6
C6
C6
7C
ENDCHAR
STARTCHAR nine
ENCODING 57
SWIDTH 500 0
DWIDTH 8 0
BBX 7 9 0 0
BITMAP
7C
C6
C6
C6
7E
06
06
0C
78
ENDCHAR
STARTCHAR colon
ENCODING 58
SWIDTH 500 0
DWIDTH 8 0
BBX 2 7 3 1
BITMAP
C0
C0
00
00
00
C0
C0
ENDCHAR
STARTCHAR semicolon
ENCODING 59
SWIDTH 500 0
DWIDTH 8 0
BBX 3 8 2 0
BITMAP
60
60
00
00
00
60
60
C0
ENDCHAR
STARTCHAR less
ENCODING 60
SWIDTH 500 0
DWIDTH 8 0
BBX 6 9 1 0
BITMAP
0C
18
30
60
C0
60
30
18
0C
ENDCHAR
STARTCHAR equal
ENCODING 61
SWIDTH 500 0
DWIDTH 8 0
BBX 6 4 1 2
BITMAP
FC
00
00
FC
ENDCHAR
STARTCHAR greater
ENCODING 62
SWIDTH 500 0
DWIDTH 8 0
BBX 6 9 1 0
BITMAP
C0
60
30
18
0C
18
30
60
C0
ENDCHAR
STARTCHAR question
ENCODING 63
SWIDTH 500 0
DWIDTH 8 0
BBX 7 9 0 0
BITMAP
7C
C6
C6
0C
18
18
00
18
18
ENDCHAR
STARTCHAR at
ENCODING 64
SWIDTH 500 0
DWIDTH 8 0
BBX 7 9 0 0
BITMAP
7C
C6
C6
DE
DE
DE
DC
C0
7C
ENDCHAR
STARTCHAR A
ENCODING 65
SWIDTH 500 0
DWIDTH 8 0
BBX 7 9 0 0
BITMAP
10
38
6C
C6
C6
FE
C6
C6
C6
ENDCHAR
STARTCHAR B
ENCODING 66
SWIDTH 500 0
DWIDTH 8 0
BBX 7 9 0 0
BITMAP
FC
66
66
66
7C
66
66
66
FC
ENDCHAR
STARTCHAR C
ENCODING 67
SWIDTH 500 0
DWIDTH 8 0
BBX 7 9 0 0
BITMAP
3C
66
C2
C0
C0
C0
C2
66
3C
ENDCHAR
STARTCHAR D
ENCODING 68
SWIDTH 500 0
DWIDTH 8 0
BBX 7 9 0 0
BITMAP
F8
6C
66
66
66
66
66
6C
F8
ENDCHAR
STARTCHAR E
ENCODING 69
SWIDTH 500 0
DWIDTH 8 0
BBX 7 9 0 0
BITMAP
FE
66
62
68
78
68
62
66
FE
ENDCHAR
STARTCHAR F
ENCODING 70
SWIDTH 500 0
DWIDTH 8 0
BBX 7 9 0 0
BITMAP
FE
66
62
68
78
68
60
60
F0
ENDCHAR
STARTCHAR G
ENCODING 71
SWIDTH 500 0
DWIDTH 8 0
BBX 7 9 0 0
BITMAP
3C
66
C2
C0
C0
DE
C6
66
3A
ENDCHAR
STARTCHAR H
ENCODING 72
SWIDTH 500 0
DWIDTH 8 0
BBX 7 9 0 0
BITMAP
C6
C6
C6
C6
FE
C6
C6
C6
C6
ENDCHAR
STARTCHAR I
ENCODING 73
SWIDTH 500 0
DWIDTH 8 0
BBX 4 9 2 0
BITMAP
F0
60
60
60
60
60
60
60
F0
ENDCHAR
STARTCHAR J
ENCODING 74
SWIDTH 500 0
DWIDTH 8 0
BBX 7 9 0 0
BITMAP
1E
0C
0C
0C
0C
0C
CC
CC
78
ENDCHAR
STARTCHAR K
ENCODING 75
SWIDTH 500 0
DWIDTH 8 0
BBX 7 9 0 0
BITMAP
E6
66
6C
6C
78
6C
6C
66
E6
ENDCHAR
STARTCHAR L
ENCODING 76
SWIDTH 500 0
DWIDTH 8 0
BBX 7 9 0 0
BITMAP
F0
60
60
60
60
60
62
66
FE
ENDCHAR
STARTCHAR M
ENCODING 77
SWIDTH 500 0
DWIDTH 8 0
BBX 7 9 0 0
BITMAP
C6
EE
FE
FE
D6
C6
C6
C6
C6
ENDCHAR
STARTCHAR N
ENCODING 78
SWIDTH 500 0
DWIDTH 8 0
BBX 7 9 0 0
BITMAP
C6
E6
F6
FE
DE
CE
C6
C6
C6
ENDCHAR
STARTCHAR O
ENCODING 79
SWIDTH 500 0
DWIDTH 8 0
BBX 7 9 0 0
BITMAP
38
6C
C6
C6
C6
C6
C6
6C
38
ENDCHAR
STARTCHAR P
ENCODING 80
SWIDTH 500 0
DWIDTH 8 0
BBX 7 9 0 0
BITMAP
FC
66
66
66
7C
60
60
60
F0
ENDCHAR
STARTCHAR Q
ENCODING 81
SWIDTH 500 0
DWIDTH 8 0
BBX 7 10 0 -1
BITMAP
7C
C6
C6
C6
C6
D6
DE
7C
0C
0E
ENDCHAR
STARTCHAR R
ENCODING 82
SWIDTH 500 0
DWIDTH 8 0
BBX 7 9 0 0
BITMAP
FC
66
66
66
7C
6C
66
66
E6
ENDCHAR
STARTCHAR S
ENCODING 83
SWIDTH 500 0
DWIDTH 8 0
BBX 7 9 0 0
BITMAP
7C
C6
C6
60
38
0C
C6
C6
7C
ENDCHAR
STARTCHAR T
ENCODING 84
SWIDTH 500 0
DWIDTH 8 0
BBX 6 9 1 0
BITMAP
FC
FC
B4
30
30
30
30
30
78
ENDCHAR
STARTCHAR U
ENCODING 85
SWIDTH 500 0
DWIDTH 8 0
BBX 7 9 0 0
BITMAP
C6
C6
C6
C6
C6
C6
C6
C6
7C
ENDCHAR
STARTCHAR V
ENCODING 86
SWIDTH 500 0
DWIDTH 8 0
BBX 7 9 0 0
BITMAP
C6
C6
C6
C6
C6
C6
6C
38
10
ENDCHAR
STARTCHAR W
ENCODING 87
SWIDTH 500 0
DWIDTH 8 0
BBX 7 9 0 0
BITMAP
C6
C6
C6
C6
D6
D6
FE
7C
6C
ENDCHAR
STARTCHAR X
ENCODING 88
SWIDTH 500 0
DWIDTH 8 0
BBX 7 9 0 0
BITMAP
C6
C6
6C
38
38
38
6C
C6
C6
ENDCHAR
STARTCHAR Y
ENCODING 89
SWIDTH 500 0
DWIDTH 8 0
BBX 6 9 1 0
BITMAP
CC
CC
CC
CC
78
30
30
30
78
ENDCHAR
STARTCHAR Z
ENCODING 90
SWIDTH 500 0
DWIDTH 8 0
BBX 7 9 0 0
BITMAP
FE
C6
8C
18
30
60
C2
C6
FE
ENDCHAR
STARTCHAR bracketleft
ENCODING 91
SWIDTH 500 0
DWIDTH 8 0
BBX 4 9 2 0
BITMAP
F0
C0
C0
C0
C0
C0
C0
C0
F0
ENDCHAR
STARTCHAR backslash
ENCODING 92
SWIDTH 500 0
DWIDTH 8 0
BBX 7 9 0 0
BITMAP
80
C0
E0
70
38
1C
0E
06
02
ENDCHAR
STARTCHAR bracketright
ENCODING 93
SWIDTH 500 0
DWIDTH 8 0
BBX 4 9 2 0
BITMAP
F0
30
30
30
30
30
30
30
F0
ENDCHAR
STARTCHAR asciicircum
ENCODING 94
SWIDTH 500 0
DWIDTH 8 0
BBX 7 4 0 7
BITMAP
10
38
6C
C6
ENDCHAR
STARTCHAR underscore
ENCODING 95
SWIDTH 500 0
DWIDTH 8 0
BBX 8 1 0 -2
BITMAP
FF
ENDCHAR
STARTCHAR grave
ENCODING 96
SWIDTH 500 0
DWIDTH 8 0
BBX 3 3 2 8
BITMAP
C0
C0
60
ENDCHAR
STARTCHAR a
ENCODING 97
SWIDTH 500 0
DWIDTH 8 0
BBX 7 6 0 0
BITMAP
78
0C
7C
CC
CC
76
ENDCHAR
STARTCHAR b
ENCODING 98
SWIDTH 500 0
DWIDTH 8 0
BBX 7 9 0 0
BITMAP
E0
60
60
78
6C
66
66
66
7C
ENDCHAR
STARTCHAR c
ENCODING 99
SWIDTH 500 0
DWIDTH 8 0
BBX 7 6 0 0
BITMAP
7C
C6
C0
C0
C6
7C
ENDCHAR
STARTCHAR d
ENCODING 100
SWIDTH 500 0
DWIDTH 8 0
BBX 7 9 0 0
BITMAP
1C
0C
0C
3C
6C
CC
CC
CC
76
ENDCHAR
STARTCHAR e
ENCODING 101
SWIDTH 500 0
DWIDTH 8 0
BBX 7 6 0 0
BITMAP
7C
C6
FE
C0
C6
7C
ENDCHAR
STARTCHAR f
ENCODING 102
SWIDTH 500 0
DWIDTH 8 0
BBX 6 9 0 0
BITMAP
38
6C
64
60
F0
60
60
60
F0
ENDCHAR
STARTCHAR g
ENCODING 103
SWIDTH 500 0
DWIDTH 8 0
BBX 7 8 0 -2
BITMAP
76
CC
CC
CC
7C
0C
CC
78
ENDCHAR
STARTCHAR h
ENCODING 104
SWIDTH 500 0
DWIDTH 8 0
BBX 7 9 0 0
BITMAP
E0
60
60
6C
76
66
66
66
E6
ENDCHAR
STARTCHAR i
ENCODING 105
SWIDTH 500 0
DWIDTH 8 0
BBX 4 9 2 0
BITMAP
60
60
00
E0
60
60
60
60
F0
ENDCHAR
STARTCHAR j
ENCODING 106
SWIDTH 500 0
DWIDTH 8 0
BBX 6 11 1 -2
BITMAP
0C
0C
00
1C
0C
0C
0C
0C
CC
CC
78
ENDCHAR
STARTCHAR k
ENCODING 107
SWIDTH 500 0
DWIDTH 8 0
BBX 7 9 0 0
BITMAP
E0
60
60
66
6C
78
6C
66
E6
ENDCHAR
STARTCHAR l
ENCODING 108
SWIDTH 500 0
DWIDTH 8 0
BBX 4 9 2 0
BITMAP
E0
60
60
60
60
60
60
60
F0
ENDCHAR
STARTCHAR m
ENCODING 109
SWIDTH 500 0
DWIDTH 8 0
BBX 7 6 0 0
BITMAP
EC
FE
D6
D6
D6
C6
ENDCHAR
STARTCHAR n
ENCODING 110
SWIDTH 500 0
DWIDTH 8 0
BBX 7 6 0 0
BITMAP
DC
66
66
66
66
66
ENDCHAR
STARTCHAR o
ENCODING 111
SWIDTH 500 0
DWIDTH 8 0
BBX 7 6 0 0
BITMAP
7C
C6
C6
C6
C6
7C
ENDCHAR
STARTCHAR p
ENCODING 112
SWIDTH 500 0
DWIDTH 8 0
BBX 7 8 0 -2
BITMAP
DC
66
66
66
7C
60
60
F0
ENDCHAR
STARTCHAR q
ENCODING 113
SWIDTH 500 0
DWIDTH 8 0
BBX 7 8 0 -2
BITMAP
76
CC
CC
CC
7C
0C
0C
1E
ENDCHAR
STARTCHAR r
ENCODING 114
SWIDTH 500 0
DWIDTH 8 0
BBX 7 6 0 0
BITMAP
DC
76
66
60
60
F0
ENDCHAR
STARTCHAR s
ENCODING 115
SWIDTH 500 0
DWIDTH 8 0
BBX 7 6 0 0
BITMAP
7C
C6
70
1C
C6
7C
ENDCHAR
STARTCHAR t
ENCODING 116
SWIDTH 500 0
DWIDTH 8 0
BBX 7 9 0 0
BITMAP
10
30
30
FC
30
30
30
36
1C
ENDCHAR
STARTCHAR u
ENCODING 117
SWIDTH 500 0
DWIDTH 8 0
BBX 7 6 0 0
BITMAP
CC
CC
CC
CC
CC
76
ENDCHAR
STARTCHAR v
ENCODING 118
SWIDTH 500 0
DWIDTH 8 0
BBX 6 6 1 0
BITMAP
CC
CC
CC
CC
78
30
ENDCHAR
STARTCHAR w
ENCODING 119
SWIDTH 500 0
DWIDTH 8 0
BBX 7 6 0 0
BITMAP
C6
C6
D6
D6
FE
6C
ENDCHAR
STARTCHAR x
ENCODING 120
SWIDTH 500 0
DWIDTH 8 0
BBX 7 6 0 0
BITMAP
C6
6C
38
38
6C
C6
ENDCHAR
STARTCHAR y
ENCODING 121
SWIDTH 500 0
DWIDTH 8 0
BBX 7 8 0 -2
BITMAP
C6
C6
C6
C6
7E
06
0C
F8
ENDCHAR
STARTCHAR z
ENCODING 122
SWIDTH 500 0
DWIDTH 8 0
BBX 7 6 0 0
BITMAP
FE
CC
18
30
66
FE
ENDCHAR
STARTCHAR braceleft
ENCODING 123
SWIDTH 500 0
DWIDTH 8 0
BBX 6 9 1 0
BITMAP
1C
30
30
30
E0
30
30
30
1C
ENDCHAR
STARTCHAR bar
ENCODING 124
SWIDTH 500 0
DWIDTH 8 0
BBX 2 9 3 0
BITMAP
C0
C0
C0
C0
00
C0
C0
C0
C0
ENDCHAR
STARTCHAR braceright
ENCODING 125
SWIDTH 500 0
DWIDTH 8 0
BBX 6 9 1 0
BITMAP
E0
30
30
30
1C
30
30
30
E0
ENDCHAR
STARTCHAR asciitilde
ENCODING 126
SWIDTH 500 0
DWIDTH 8 0
BBX 7 2 0 7
BITMAP
76
DC
ENDCHAR
STARTCHAR uni007F
ENCODING 127
SWIDTH 500 0
DWIDTH 8 0
BBX 7 6 0 1
BITMAP
10
38
6C
C6
C6
FE
ENDCHAR
STARTCHAR uni00A0
ENCODING 160
SWIDTH 500 0
DWIDTH 8 0
BBX 1 1 0 0
BITMAP
00
ENDCHAR
STARTCHAR exclamdown
ENCODING 161
SWIDTH 500 0
DWIDTH 8 0
BBX 4 9 2 0
BITMAP
60
60
00
60
60
F0
F0
F0
60
ENDCHAR
STARTCHAR cent
ENCODING 162
SWIDTH 500 0
DWIDTH 8 0
BBX 6 10 1 0
BITMAP
30
30
78
CC
C0
C0
CC
78
30
30
ENDCHAR
STARTCHAR sterling
ENCODING 163
SWIDTH 500 0
DWIDTH 8 0
BBX 7 10 0 0
BITMAP
38
6C
64
60
F0
60
60
60
E6
FC
ENDCHAR
STARTCHAR currency
ENCODING 164
SWIDTH 500 0
DWIDTH 8 0
BBX 7 7 0 0
BITMAP
C6
7C
C6
C6
C6
7C
C6
ENDCHAR
STARTCHAR yen
ENCODING 165
SWIDTH 500 0
DWIDTH 8 0
BBX 6 9 1 0
BITMAP
CC
CC
78
30
FC
30
FC
30
30
ENDCHAR
STARTCHAR brokenbar
ENCODING 166
SWIDTH 500 0
DWIDTH 8 0
BBX 2 9 3 0
BITMAP
C0
C0
C0
C0
00
C0
C0
C0
C0
ENDCHAR
STARTCHAR section
ENCODING 167
SWIDTH 500 0
DWIDTH 8 0
BBX 7 12 0 -2
BITMAP
7C
C6
60
38
6C
C6
C6
6C
38
0C
C6
7C
ENDCHAR
STARTCHAR dieresis
ENCODING 168
SWIDTH 500 0
DWIDTH 8 0
BBX 7 2 0 9
BITMAP
C6
C6
ENDCHAR
STARTCHAR copyright
ENCODING 169
SWIDTH 500 0
DWIDTH 8 0
BBX 7 9 0 0
BITMAP
38
44
9A
A2
A2
A2
9A
44
38
ENDCHAR
STARTCHAR ordfeminine
ENCODING 170
SWIDTH 500 0
DWIDTH 8 0
BBX 6 6 1 4
BITMAP
78
D8
D8
7C
00
FC
ENDCHAR
STARTCHAR guillemotleft
ENCODING 171
SWIDTH 500 0
DWIDTH 8 0
BBX 7 5 0 2
BITMAP
36
6C
D8
6C
36
ENDCHAR
STARTCHAR logicalnot
ENCODING 172
SWIDTH 500 0
DWIDTH 8 0
BBX 7 4 0 1
BITMAP
FE
06
06
06
ENDCHAR
STARTCHAR uni00AD
ENCODING 173
SWIDTH 500 0
DWIDTH 8 0
BBX 7 1 0 4
BITMAP
FE
ENDCHAR
STARTCHAR registered
ENCODING 174
SWIDTH 500 0
DWIDTH 8 0
BBX 7 9 0 0
BITMAP
38
44
BA
AA
B2
AA
AA
44
38
ENDCHAR
STARTCHAR macron
ENCODING 175
SWIDTH 500 0
DWIDTH 8 0
BBX 8 1 0 10
BITMAP
FF
ENDCHAR
STARTCHAR degree
ENCODING 176
SWIDTH 500 0
DWIDTH 8 0
BBX 5 4 1 6
BITMAP
70
D8
D8
70
ENDCHAR
STARTCHAR plusminus
ENCODING 177
SWIDTH 500 0
DWIDTH 8 0
BBX 8 8 0 0
BITMAP
18
18
7E
18
18
00
00
FF
ENDCHAR
STARTCHAR uni00B2
ENCODING 178
SWIDTH 500 0
DWIDTH 8 0
BBX 5 6 0 4
BITMAP
70
D8
30
60
C8
F8
ENDCHAR
STARTCHAR uni00B3
ENCODING 179
SWIDTH 500 0
DWIDTH 8 0
BBX 5 6 0 4
BITMAP
F0
18
70
18
18
F0
ENDCHAR
STARTCHAR acute
ENCODING 180
SWIDTH 500 0
DWIDTH 8 0
BBX 4 3 2 8
BITMAP
30
60
C0
ENDCHAR
STARTCHAR mu
ENCODING 181
SWIDTH 500 0
DWIDTH 8 0
BBX 7 8 0 -1
BITMAP
66
66
66
66
7C
60
60
C0
ENDCHAR
STARTCHAR paragraph
ENCODING 182
SWIDTH 500 0
DWIDTH 8 0
BBX 8 9 0 0
BITMAP
7F
DB
DB
DB
7B
1B
1B
1B
1B
ENDCHAR
STARTCHAR periodcentered
ENCODING 183
SWIDTH 500 0
DWIDTH 8 0
BBX 2 1 3 3
BITMAP
C0
ENDCHAR
STARTCHAR cedilla
ENCODING 184
SWIDTH 500 0
DWIDTH 8 0
BBX 5 3 1 -2
BITMAP
30
18
F0
ENDCHAR
STARTCHAR uni00B9
ENCODING 185
SWIDTH 500 0
DWIDTH 8 0
BBX 4 6 1 4
BITMAP
60
E0
60
60
60
F0
ENDCHAR
STARTCHAR ordmasculine
ENCODING 186
SWIDTH 500 0
DWIDTH 8 0
BBX 5 6 1 4
BITMAP
70
D8
D8
70
00
F8
ENDCHAR
STARTCHAR guillemotright
ENCODING 187
SWIDTH 500 0
DWIDTH 8 0
BBX 7 5 0 2
BITMAP
D8
6C
36
6C
D8
ENDCHAR
STARTCHAR onequarter
ENCODING 188
SWIDTH 500 0
DWIDTH 8 0
BBX 7 12 0 -2
BITMAP
C0
C0
C6
CC
D8
30
66
CE
9E
3E
06
06
ENDCHAR
STARTCHAR onehalf
ENCODING 189
SWIDTH 500 0
DWIDTH 8 0
BBX 7 12 0 -2
BITMAP
C0
C0
C6
CC
D8
30
60
DC
86
0C
18
3E
ENDCHAR
STARTCHAR threequarters
ENCODING 190
SWIDTH 500 0
DWIDTH 8 0
BBX 7 12 0 -2
BITMAP
E0
30
62
36
EC
18
36
6E
DE
3E
06
06
ENDCHAR
STARTCHAR questiondown
ENCODING 191
SWIDTH 500 0
DWIDTH 8 0
BBX 7 9 0 0
BITMAP
30
30
00
30
30
60
C6
C6
7C
ENDCHAR
STARTCHAR Agrave
ENCODING 192
SWIDTH 500 0
DWIDTH 8 0
BBX 7 11 0 0
BITMAP
18
0C
06
10
38
6C
C6
C6
FE
C6
C6
ENDCHAR
STARTCHAR Aacute
ENCODING 193
SWIDTH 500 0
DWIDTH 8 0
BBX 7 11 0 0
BITMAP
30
60
C0
10
38
6C
C6
C6
FE
C6
C6
ENDCHAR
STARTCHAR Acircumflex
ENCODING 194
SWIDTH 500 0
DWIDTH 8 0
BBX 7 11 0 0
BITMAP
38
6C
C6
10
38
6C
C6
C6
FE
C6
C6
ENDCHAR
STARTCHAR Atilde
ENCODING 195
SWIDTH 500 0
DWIDTH 8 0
BBX 7 11 0 0
BITMAP
76
DC
00
10
38
6C
C6
C6
FE
C6
C6
ENDCHAR
STARTCHAR Adieresis
ENCODING 196
SWIDTH 500 0
DWIDTH 8 0
BBX 7 10 0 0
BITMAP
C6
C6
10
38
6C
C6
C6
FE
C6
C6
ENDCHAR
STARTCHAR Aring
ENCODING 197
SWIDTH 500 0
DWIDTH 8 0
BBX 7 11 0 0
BITMAP
38
6C
38
00
38
6C
C6
C6
FE
C6
C6
ENDCHAR
STARTCHAR AE
ENCODING 198
SWIDTH 500 0
DWIDTH 8 0
BBX 7 9 0 0
BITMAP
3E
6C
CC
CC
FE
CC
CC
CC
CE
ENDCHAR
STARTCHAR Ccedilla
ENCODING 199
SWIDTH 500 0
DWIDTH 8 0
BBX 7 11 0 -2
BITMAP
3C
66
C2
C0
C0
C2
66
3C
0C
06
7C
ENDCHAR
STARTCHAR Egrave
ENCODING 200
SWIDTH 500 0
DWIDTH 8 0
BBX 7 11 0 0
BITMAP
30
18
00
FE
66
60
7C
60
60
66
FE
ENDCHAR
STARTCHAR Eacute
ENCODING 201
SWIDTH 500 0
DWIDTH 8 0
BBX 7 11 0 0
BITMAP
18
30
60
00
FE
66
60
7C
60
66
FE
ENDCHAR
STARTCHAR Ecircumflex
ENCODING 202
SWIDTH 500 0
DWIDTH 8 0
BBX 7 11 0 0
BITMAP
38
6C
00
FE
66
60
7C
60
60
66
FE
ENDCHAR
STARTCHAR Edieresis
ENCODING 203
SWIDTH 500 0
DWIDTH 8 0
BBX 7 11 0 0
BITMAP
C6
C6
00
FE
66
60
7C
60
60
66
FE
ENDCHAR
STARTCHAR Igrave
ENCODING 204
SWIDTH 500 0
DWIDTH 8 0
BBX 4 11 2 0
BITMAP
C0
60
00
F0
60
60
60
60
60
60
F0
ENDCHAR
STARTCHAR Iacute
ENCODING 205
SWIDTH 500 0
DWIDTH 8 0
BBX 4 11 2 0
BITMAP
30
60
00
F0
60
60
60
60
60
60
F0
ENDCHAR
STARTCHAR Icircumflex
ENCODING 206
SWIDTH 500 0
DWIDTH 8 0
BBX 6 11 1 0
BITMAP
78
CC
00
78
30
30
30
30
30
30
78
ENDCHAR
STARTCHAR Idieresis
ENCODING 207
SWIDTH 500 0
DWIDTH 8 0
BBX 6 11 1 0
BITMAP
CC
CC
00
78
30
30
30
30
30
30
78
ENDCHAR
STARTCHAR Eth
ENCODING 208
SWIDTH 500 0
DWIDTH 8 0
BBX 7 9 0 0
BITMAP
F8
6C
66
66
F6
66
66
6C
F8
ENDCHAR
STARTCHAR Ntilde
ENCODING 209
SWIDTH 500 0
DWIDTH 8 0
BBX 7 11 0 0
BITMAP
76
DC
00
C6
E6
F6
FE
DE
CE
C6
C6
ENDCHAR
STARTCHAR Ograve
ENCODING 210
SWIDTH 500 0
DWIDTH 8 0
BBX 7 11 0 0
BITMAP
30
18
00
38
6C
C6
C6
C6
C6
6C
38
ENDCHAR
STARTCHAR Oacute
ENCODING 211
SWIDTH 500 0
DWIDTH 8 0
BBX 7 11 0 0
BITMAP
18
30
00
38
6C
C6
C6
C6
C6
6C
38
ENDCHAR
STARTCHAR Ocircumflex
ENCODING 212
SWIDTH 500 0
DWIDTH 8 0
BBX 7 11 0 0
BITMAP
38
6C
00
38
6C
C6
C6
C6
C6
6C
38
ENDCHAR
STARTCHAR Otilde
ENCODING 213
SWIDTH 500 0
DWIDTH 8 0
BBX 7 11 0 0
BITMAP
76
DC
00
38
6C
C6
C6
C6
C6
6C
38
ENDCHAR
STARTCHAR Odieresis
ENCODING 214
SWIDTH 500 0
DWIDTH 8 0
BBX 7 10 0 0
BITMAP
C6
C6
38
6C
C6
C6
C6
C6
6C
38
ENDCHAR
STARTCHAR multiply
ENCODING 215
SWIDTH 500 0
DWIDTH 8 0
BBX 7 6 0 1
BITMAP
C6
6C
38
38
6C
C6
ENDCHAR
STARTCHAR Oslash
ENCODING 216
SWIDTH 500 0
DWIDTH 8 0
BBX 7 11 0 -1
BITMAP
06
3C
6C
CE
D6
D6
D6
E6
6C
78
C0
ENDCHAR
STARTCHAR Ugrave
ENCODING 217
SWIDTH 500 0
DWIDTH 8 0
BBX 7 11 0 0
BITMAP
60
30
18
00
C6
C6
C6
C6
C6
C6
7C
ENDCHAR
STARTCHAR Uacute
ENCODING 218
SWIDTH 500 0
DWIDTH 8 0
BBX 7 11 0 0
BITMAP
0C
18
30
00
C6
C6
C6
C6
C6
C6
7C
ENDCHAR
STARTCHAR Ucircumflex
ENCODING 219
SWIDTH 500 0
DWIDTH 8 0
BBX 7 10 0 0
BITMAP
38
6C
00
C6
C6
C6
C6
C6
C6
7C
ENDCHAR
STARTCHAR Udieresis
ENCODING 220
SWIDTH 500 0
DWIDTH 8 0
BBX 7 10 0 0
BITMAP
C6
C6
00
C6
C6
C6
C6
C6
C6
7C
ENDCHAR
STARTCHAR Yacute
ENCODING 221
SWIDTH 500 0
DWIDTH 8 0
BBX 6 11 1 0
BITMAP
18
30
00
CC
CC
CC
78
30
30
30
78
ENDCHAR
STARTCHAR Thorn
ENCODING 222
SWIDTH 500 0
DWIDTH 8 0
BBX 7 9 0 0
BITMAP
F0
60
7C
66
66
66
7C
60
F0
ENDCHAR
STARTCHAR germandbls
ENCODING 223
SWIDTH 500 0
DWIDTH 8 0
BBX 7 9 0 0
BITMAP
78
CC
CC
CC
D8
CC
C6
C6
CC
ENDCHAR
STARTCHAR agrave
ENCODING 224
SWIDTH 500 0
DWIDTH 8 0
BBX 7 10 0 0
BITMAP
60
30
18
00
78
0C
7C
CC
CC
76
ENDCHAR
STARTCHAR aacute
ENCODING 225
SWIDTH 500 0
DWIDTH 8 0
BBX 7 10 0 0
BITMAP
18
30
60
00
78
0C
7C
CC
CC
76
ENDCHAR
STARTCHAR acircumflex
ENCODING 226
SWIDTH 500 0
DWIDTH 8 0
BBX 7 10 0 0
BITMAP
10
38
6C
00
78
0C
7C
CC
CC
76
ENDCHAR
STARTCHAR atilde
ENCODING 227
SWIDTH 500 0
DWIDTH 8 0
BBX 7 9 0 0
BITMAP
76
DC
00
78
0C
7C
CC
CC
76
ENDCHAR
STARTCHAR adieresis
ENCODING 228
SWIDTH 500 0
DWIDTH 8 0
BBX 7 9 0 0
BITMAP
CC
CC
00
78
0C
7C
CC
CC
76
ENDCHAR
STARTCHAR aring
ENCODING 229
SWIDTH 500 0
DWIDTH 8 0
BBX 7 10 0 0
BITMAP
38
6C
38
00
78
0C
7C
CC
CC
76
ENDCHAR
STARTCHAR ae
ENCODING 230
SWIDTH 500 0
DWIDTH 8 0
BBX 7 7 0 0
BITMAP
CC
76
36
7E
D8
D8
6E
ENDCHAR
STARTCHAR ccedilla
ENCODING 231
SWIDTH 500 0
DWIDTH 8 0
BBX 6 8 1 -1
BITMAP
78
CC
C0
CC
78
18
0C
78
ENDCHAR
STARTCHAR egrave
ENCODING 232
SWIDTH 500 0
DWIDTH 8 0
BBX 7 10 0 0
BITMAP
60
30
18
00
7C
C6
FE
C0
C6
7C
ENDCHAR
STARTCHAR eacute
ENCODING 233
SWIDTH 500 0
DWIDTH 8 0
BBX 7 10 0 0
BITMAP
0C
18
30
00
7C
C6
FE
C0
C6
7C
ENDCHAR
STARTCHAR ecircumflex
ENCODING 234
SWIDTH 500 0
DWIDTH 8 0
BBX 7 10 0 0
BITMAP
10
38
6C
00
7C
C6
FE
C0
C6
7C
ENDCHAR
STARTCHAR edieresis
ENCODING 235
SWIDTH 500 0
DWIDTH 8 0
BBX 7 9 0 0
BITMAP
CC
CC
00
7C
C6
FE
C0
C6
7C
ENDCHAR
STARTCHAR igrave
ENCODING 236
SWIDTH 500 0
DWIDTH 8 0
BBX 5 10 1 0
BITMAP
C0
60
30
00
70
30
30
30
30
78
ENDCHAR
STARTCHAR iacute
ENCODING 237
SWIDTH 500 0
DWIDTH 8 0
BBX 4 10 2 0
BITMAP
30
60
C0
00
E0
60
60
60
60
F0
ENDCHAR
STARTCHAR icircumflex
ENCODING 238
SWIDTH 500 0
DWIDTH 8 0
BBX 6 10 1 0
BITMAP
30
78
CC
00
70
30
30
30
30
78
ENDCHAR
STARTCHAR idieresis
ENCODING 239
SWIDTH 500 0
DWIDTH 8 0
BBX 6 9 1 0
BITMAP
CC
CC
00
70
30
30
30
30
78
ENDCHAR
STARTCHAR eth
ENCODING 240
SWIDTH 500 0
DWIDTH 8 0
BBX 6 9 1 0
BITMAP
68
30
58
0C
7C
CC
CC
CC
78
ENDCHAR
STARTCHAR ntilde
ENCODING 241
SWIDTH 500 0
DWIDTH 8 0
BBX 7 9 0 0
BITMAP
76
DC
00
DC
66
66
66
66
66
ENDCHAR
STARTCHAR ograve
ENCODING 242
SWIDTH 500 0
DWIDTH 8 0
BBX 7 10 0 0
BITMAP
60
30
18
00
7C
C6
C6
C6
C6
7C
ENDCHAR
STARTCHAR oacute
ENCODING 243
SWIDTH 500 0
DWIDTH 8 0
BBX 7 10 0 0
BITMAP
18
30
60
00
7C
C6
C6
C6
C6
7C
ENDCHAR
STARTCHAR ocircumflex
ENCODING 244
SWIDTH 500 0
DWIDTH 8 0
BBX 7 10 0 0
BITMAP
10
38
6C
00
7C
C6
C6
C6
C6
7C
ENDCHAR
STARTCHAR otilde
ENCODING 245
SWIDTH 500 0
DWIDTH 8 0
BBX 7 9 0 0
BITMAP
76
DC
00
7C
C6
C6
C6
C6
7C
ENDCHAR
STARTCHAR odieresis
ENCODING 246
SWIDTH 500 0
DWIDTH 8 0
BBX 7 9 0 0
BITMAP
C6
C6
00
7C
C6
C6
C6
C6
7C
ENDCHAR
STARTCHAR divide
ENCODING 247
SWIDTH 500 0
DWIDTH 8 0
BBX 6 7 1 1
BITMAP
30
30
00
FC
00
30
30
ENDCHAR
STARTCHAR oslash
ENCODING 248
SWIDTH 500 0
DWIDTH 8 0
BBX 7 6 0 0
BITMAP
7C
CE
DE
F6
E6
7C
ENDCHAR
STARTCHAR ugrave
ENCODING 249
SWIDTH 500 0
DWIDTH 8 0
BBX 7 10 0 0
BITMAP
60
30
18
00
CC
CC
CC
CC
CC
76
ENDCHAR
STARTCHAR uacute
ENCODING 250
SWIDTH 500 0
DWIDTH 8 0
BBX 7 10 0 0
BITMAP
18
30
60
00
CC
CC
CC
CC
CC
76
ENDCHAR
STARTCHAR ucircumflex
ENCODING 251
SWIDTH 500 0
DWIDTH 8 0
BBX 7 10 0 0
BITMAP
30
78
CC
00
CC
CC
CC
CC
CC
76
ENDCHAR
STARTCHAR udieresis
ENCODING 252
SWIDTH 500 0
DWIDTH 8 0
BBX 7 9 0 0
BITMAP
CC
CC
00
CC
CC
CC
CC
CC
76
ENDCHAR
STARTCHAR yacute
ENCODING 253
SWIDTH 500 0
DWIDTH 8 0
BBX 7 12 0 -2
BITMAP
0C
18
30
00
C6
C6
C6
C6
7E
06
0C
F8
ENDCHAR
STARTCHAR thorn
ENCODING 254
SWIDTH 500 0
DWIDTH 8 0
BBX 7 11 0 -2
BITMAP
E0
60
60
7C
66
66
66
66
7C
60
F0
ENDCHAR
STARTCHAR ydieresis
ENCODING 255
SWIDTH 500 0
DWIDTH 8 0
BBX 7 11 0 -2
BITMAP
C6
C6
00
C6
C6
C6
C6
7E
06
0C
78
ENDCHAR
STARTCHAR Amacron
ENCODING 256
SWIDTH 500 0
DWIDTH 8 0
BBX 7 11 0 0
BITMAP
7C
00
10
38
6C
C6
C6
FE
C6
C6
C6
ENDCHAR
STARTCHAR amacron
ENCODING 257
SWIDTH 500 0
DWIDTH 8 0
BBX 7 8 0 0
BITMAP
7C
00
78
0C
7C
CC
CC
76
ENDCHAR
STARTCHAR Abreve
ENCODING 258
SWIDTH 500 0
DWIDTH 8 0
BBX 7 11 0 0
BITMAP
C6
7C
00
10
38
6C
C6
C6
FE
C6
C6
ENDCHAR
STARTCHAR abreve
ENCODING 259
SWIDTH 500 0
DWIDTH 8 0
BBX 7 9 0 0
BITMAP
C6
7C
00
78
0C
7C
CC
CC
76
ENDCHAR
STARTCHAR Aogonek
ENCODING 260
SWIDTH 500 0
DWIDTH 8 0
BBX 7 11 0 -2
BITMAP
10
38
6C
C6
C6
FE
C6
C6
C6
18
0E
ENDCHAR
STARTCHAR aogonek
ENCODING 261
SWIDTH 500 0
DWIDTH 8 0
BBX 7 8 0 -2
BITMAP
78
0C
7C
CC
CC
76
18
0E
ENDCHAR
STARTCHAR Cacute
ENCODING 262
SWIDTH 500 0
DWIDTH 8 0
BBX 7 11 0 0
BITMAP
0C
18
00
3C
66
C2
C0
C0
C2
66
3C
ENDCHAR
STARTCHAR cacute
ENCODING 263
SWIDTH 500 0
DWIDTH 8 0
BBX 7 10 0 0
BITMAP
06
0C
18
00
7C
C6
C0
C0
C6
7C
ENDCHAR
STARTCHAR Ccircumflex
ENCODING 264
SWIDTH 500 0
DWIDTH 8 0
BBX 7 11 0 0
BITMAP
1C
36
00
3C
66
C2
C0
C0
C2
66
3C
ENDCHAR
STARTCHAR ccircumflex
ENCODING 265
SWIDTH 500 0
DWIDTH 8 0
BBX 7 10 0 0
BITMAP
10
38
6C
00
7C
C6
C0
C0
C6
7C
ENDCHAR
STARTCHAR Cdotaccent
ENCODING 266
SWIDTH 500 0
DWIDTH 8 0
BBX 7 11 0 0
BITMAP
18
18
00
3C
66
C2
C0
C0
C2
66
3C
ENDCHAR
STARTCHAR cdotaccent
ENCODING 267
SWIDTH 500 0
DWIDTH 8 0
BBX 7 9 0 0
BITMAP
18
18
00
7C
C6
C0
C0
C6
7C
ENDCHAR
STARTCHAR Ccaron
ENCODING 268
SWIDTH 500 0
DWIDTH 8 0
BBX 7 11 0 0
BITMAP
36
1C
00
3C
66
C2
C0
C0
C2
66
3C
ENDCHAR
STARTCHAR ccaron
ENCODING 269
SWIDTH 500 0
DWIDTH 8 0
BBX 7 10 0 0
BITMAP
6C
38
10
00
7C
C6
C0
C0
C6
7C
ENDCHAR
STARTCHAR Dcaron
ENCODING 270
SWIDTH 500 0
DWIDTH 8 0
BBX 7 11 0 0
BITMAP
6C
38
00
F8
6C
66
66
66
66
6C
F8
ENDCHAR
STARTCHAR dcaron
ENCODING 271
SWIDTH 500 0
DWIDTH 8 0
BBX 8 11 0 0
BITMAP
03
01
02
1C
0C
0C
3C
6C
CC
CC
76
ENDCHAR
STARTCHAR Dcroat
ENCODING 272
SWIDTH 500 0
DWIDTH 8 0
BBX 7 9 0 0
BITMAP
F8
6C
66
66
F6
66
66
6C
F8
ENDCHAR
STARTCHAR dcroat
ENCODING 273
SWIDTH 500 0
DWIDTH 8 0
BBX 7 9 0 0
BITMAP
0C
7E
0C
3C
6C
CC
CC
CC
76
ENDCHAR
STARTCHAR Emacron
ENCODING 274
SWIDTH 500 0
DWIDTH 8 0
BBX 7 11 0 0
BITMAP
7C
00
FE
66
62
68
78
68
62
66
FE
ENDCHAR
STARTCHAR emacron
ENCODING 275
SWIDTH 500 0
DWIDTH 8 0
BBX 7 8 0 0
BITMAP
7C
00
7C
C6
FE
C0
C6
7C
ENDCHAR
STARTCHAR Ebreve
ENCODING 276
SWIDTH 500 0
DWIDTH 8 0
BBX 7 11 0 0
BITMAP
C6
7C
00
FE
66
60
7C
60
60
66
FE
ENDCHAR
STARTCHAR ebreve
ENCODING 277
SWIDTH 500 0
DWIDTH 8 0
BBX 7 9 0 0
BITMAP
C6
7C
00
7C
C6
FE
C0
C6
7C
ENDCHAR
STARTCHAR Edotaccent
ENCODING 278
SWIDTH 500 0
DWIDTH 8 0
BBX 7 11 0 0
BITMAP
18
18
00
FE
66
60
7C
60
60
66
FE
ENDCHAR
STARTCHAR edotaccent
ENCODING 279
SWIDTH 500 0
DWIDTH 8 0
BBX 7 9 0 0
BITMAP
18
18
00
7C
C6
FE
C0
C6
7C
ENDCHAR
STARTCHAR Eogonek
ENCODING 280
SWIDTH 500 0
DWIDTH 8 0
BBX 7 11 0 -2
BITMAP
FE
66
62
68
78
68
62
66
FE
18
0E
ENDCHAR
STARTCHAR eogonek
ENCODING 281
SWIDTH 500 0
DWIDTH 8 0
BBX 7 8 0 -2
BITMAP
7C
C6
FE
C0
C6
7C
18
0E
ENDCHAR
STARTCHAR Ecaron
ENCODING 282
SWIDTH 500 0
DWIDTH 8 0
BBX 7 11 0 0
BITMAP
6C
38
00
FE
66
60
7C
60
60
66
FE
ENDCHAR
STARTCHAR ecaron
ENCODING 283
SWIDTH 500 0
DWIDTH 8 0
BBX 7 10 0 0
BITMAP
6C
38
10
00
7C
C6
FE
C0
C6
7C
ENDCHAR
STARTCHAR Gcircumflex
ENCODING 284
SWIDTH 500 0
DWIDTH 8 0
BBX 7 11 0 0
BITMAP
1C
36
00
3C
66
C2
C0
DE
C6
66
3A
ENDCHAR
STARTCHAR gcircumflex
ENCODING 285
SWIDTH 500 0
DWIDTH 8 0
BBX 7 12 0 -2
BITMAP
10
38
6C
00
76
CC
CC
CC
7C
0C
CC
78
ENDCHAR
STARTCHAR Gbreve
ENCODING 286
SWIDTH 500 0
DWIDTH 8 0
BBX 7 11 0 0
BITMAP
36
1C
00
3C
66
C2
C0
DE
C6
66
3A
ENDCHAR
STARTCHAR gbreve
ENCODING 287
SWIDTH 500 0
DWIDTH 8 0
BBX 7 12 0 -2
BITMAP
6C
38
10
00
76
CC
CC
CC
7C
0C
CC
78
ENDCHAR
STARTCHAR Gdotaccent
ENCODING 288
SWIDTH 500 0
DWIDTH 8 0
BBX 7 11 0 0
BITMAP
18
18
00
3C
66
C2
C0
DE
C6
66
3A
ENDCHAR
STARTCHAR gdotaccent
ENCODING 289
SWIDTH 500 0
DWIDTH 8 0
BBX 7 11 0 -2
BITMAP
18
18
00
76
CC
CC
CC
7C
0C
CC
78
ENDCHAR
STARTCHAR Gcommaaccent
ENCODING 290
SWIDTH 500 0
DWIDTH 8 0
BBX 7 11 0 -2
BITMAP
3C
66
C2
C0
C0
DE
C6
66
3A
18
70
ENDCHAR
STARTCHAR gcommaaccent
ENCODING 291
SWIDTH 500 0
DWIDTH 8 0
BBX 7 11 0 -2
BITMAP
1C
30
00
76
CC
CC
CC
7C
0C
CC
78
ENDCHAR
STARTCHAR Hcircumflex
ENCODING 292
SWIDTH 500 0
DWIDTH 8 0
BBX 7 11 0 0
BITMAP
38
6C
00
C6
C6
C6
FE
C6
C6
C6
C6
ENDCHAR
STARTCHAR hcircumflex
ENCODING 293
SWIDTH 500 0
DWIDTH 8 0
BBX 7 11 0 0
BITMAP
38
6C
00
E0
60
6C
76
66
66
66
E6
ENDCHAR
STARTCHAR Hbar
ENCODING 294
SWIDTH 500 0
DWIDTH 8 0
BBX 8 9 0 0
BITMAP
66
66
FF
66
7E
66
66
66
66
ENDCHAR
STARTCHAR hbar
ENCODING 295
SWIDTH 500 0
DWIDTH 8 0
BBX 7 9 0 0
BITMAP
E0
60
F0
6C
76
66
66
66
E6
ENDCHAR
STARTCHAR Itilde
ENCODING 296
SWIDTH 500 0
DWIDTH 8 0
BBX 7 11 0 0
BITMAP
76
DC
00
3C
18
18
18
18
18
18
3C
ENDCHAR
STARTCHAR itilde
ENCODING 297
SWIDTH 500 0
DWIDTH 8 0
BBX 7 9 0 0
BITMAP
76
DC
00
38
18
18
18
18
3C
ENDCHAR
STARTCHAR Imacron
ENCODING 298
SWIDTH 500 0
DWIDTH 8 0
BBX 6 10 1 0
BITMAP
FC
00
78
30
30
30
30
30
30
78
ENDCHAR
STARTCHAR imacron
ENCODING 299
SWIDTH 500 0
DWIDTH 8 0
BBX 5 8 1 0
BITMAP
F8
00
70
30
30
30
30
78
ENDCHAR
STARTCHAR Ibreve
ENCODING 300
SWIDTH 500 0
DWIDTH 8 0
BBX 6 11 1 0
BITMAP
CC
78
00
78
30
30
30
30
30
30
78
ENDCHAR
STARTCHAR ibreve
ENCODING 301
SWIDTH 500 0
DWIDTH 8 0
BBX 6 9 1 0
BITMAP
CC
78
00
70
30
30
30
30
78
ENDCHAR
STARTCHAR Iogonek
ENCODING 302
SWIDTH 500 0
DWIDTH 8 0
BBX 5 11 2 -2
BITMAP
F0
60
60
60
60
60
60
60
F0
60
38
ENDCHAR
STARTCHAR iogonek
ENCODING 303
SWIDTH 500 0
DWIDTH 8 0
BBX 5 11 2 -2
BITMAP
60
60
00
E0
60
60
60
60
F0
60
38
ENDCHAR
STARTCHAR Idotaccent
ENCODING 304
SWIDTH 500 0
DWIDTH 8 0
BBX 4 11 2 0
BITMAP
60
60
00
F0
60
60
60
60
60
60
F0
ENDCHAR
STARTCHAR dotlessi
ENCODING 305
SWIDTH 500 0
DWIDTH 8 0
BBX 4 6 2 0
BITMAP
E0
60
60
60
60
F0
ENDCHAR
STARTCHAR IJ
ENCODING 306
SWIDTH 500 0
DWIDTH 8 0
BBX 7 9 0 0
BITMAP
CE
C6
C6
C6
C6
C6
D6
D6
CC
ENDCHAR
STARTCHAR ij
ENCODING 307
SWIDTH 500 0
DWIDTH 8 0
BBX 7 11 0 -2
BITMAP
C6
C6
00
CE
C6
C6
C6
C6
F6
36
1C
ENDCHAR
STARTCHAR Jcircumflex
ENCODING 308
SWIDTH 500 0
DWIDTH 8 0
BBX 7 11 0 0
BITMAP
1C
36
00
1E
0C
0C
0C
0C
CC
CC
78
ENDCHAR
STARTCHAR jcircumflex
ENCODING 309
SWIDTH 500 0
DWIDTH 8 0
BBX 7 12 0 -2
BITMAP
08
1C
36
00
1C
0C
0C
0C
0C
CC
CC
78
ENDCHAR
STARTCHAR Kcommaaccent
ENCODING 310
SWIDTH 500 0
DWIDTH 8 0
BBX 7 11 0 -2
BITMAP
E6
66
6C
6C
78
6C
6C
66
E6
18
70
ENDCHAR
STARTCHAR kcommaaccent
ENCODING 311
SWIDTH 500 0
DWIDTH 8 0
BBX 7 11 0 -2
BITMAP
E0
60
60
66
6C
78
6C
66
E6
18
70
ENDCHAR
STARTCHAR kgreenlandic
ENCODING 312
SWIDTH 500 0
DWIDTH 8 0
BBX 7 6 0 0
BITMAP
E6
6C
78
6C
66
E6
ENDCHAR
STARTCHAR Lacute
ENCODING 313
SWIDTH 500 0
DWIDTH 8 0
BBX 7 11 0 0
BITMAP
30
60
00
F0
60
60
60
60
62
66
FE
ENDCHAR
STARTCHAR lacute
ENCODING 314
SWIDTH 500 0
DWIDTH 8 0
BBX 6 11 1 0
BITMAP
0C
18
E0
60
60
60
60
60
60
60
F0
ENDCHAR
STARTCHAR Lcommaaccent
ENCODING 315
SWIDTH 500 0
DWIDTH 8 0
BBX 7 11 0 -2
BITMAP
F0
60
60
60
60
60
62
66
FE
18
70
ENDCHAR
STARTCHAR lcommaaccent
ENCODING 316
SWIDTH 500 0
DWIDTH 8 0
BBX 4 11 2 -2
BITMAP
E0
60
60
60
60
60
60
60
F0
30
E0
ENDCHAR
STARTCHAR Lcaron
ENCODING 317
SWIDTH 500 0
DWIDTH 8 0
BBX 7 9 0 0
BITMAP
F6
62
64
60
60
60
62
66
FE
ENDCHAR
STARTCHAR lcaron
ENCODING 318
SWIDTH 500 0
DWIDTH 8 0
BBX 6 9 1 0
BITMAP
EC
64
68
60
60
60
60
60
F0
ENDCHAR
STARTCHAR Ldot
ENCODING 319
SWIDTH 500 0
DWIDTH 8 0
BBX 7 9 0 0
BITMAP
F0
60
60
66
66
60
62
66
FE
ENDCHAR
STARTCHAR ldot
ENCODING 320
SWIDTH 500 0
DWIDTH 8 0
BBX 6 9 1 0
BITMAP
E0
60
60
6C
6C
60
60
60
F0
ENDCHAR
STARTCHAR Lslash
ENCODING 321
SWIDTH 500 0
DWIDTH 8 0
BBX 7 9 0 0
BITMAP
78
30
36
3C
38
70
F2
36
7E
ENDCHAR
STARTCHAR lslash
ENCODING 322
SWIDTH 500 0
DWIDTH 8 0
BBX 6 9 1 0
BITMAP
70
34
3C
38
30
70
F0
30
78
ENDCHAR
STARTCHAR Nacute
ENCODING 323
SWIDTH 500 0
DWIDTH 8 0
BBX 7 11 0 0
BITMAP
0C
18
00
C6
E6
F6
FE
DE
CE
C6
C6
ENDCHAR
STARTCHAR nacute
ENCODING 324
SWIDTH 500 0
DWIDTH 8 0
BBX 7 10 0 0
BITMAP
06
0C
18
00
DC
66
66
66
66
66
ENDCHAR
STARTCHAR Ncommaaccent
ENCODING 325
SWIDTH 500 0
DWIDTH 8 0
BBX 7 11 0 -2
BITMAP
C6
E6
F6
FE
DE
CE
C6
C6
C6
18
70
ENDCHAR
STARTCHAR ncommaaccent
ENCODING 326
SWIDTH 500 0
DWIDTH 8 0
BBX 7 8 0 -2
BITMAP
DC
66
66
66
66
66
18
70
ENDCHAR
STARTCHAR Ncaron
ENCODING 327
SWIDTH 500 0
DWIDTH 8 0
BBX 7 11 0 0
BITMAP
6C
38
00
C6
E6
F6
FE
DE
CE
C6
C6
ENDCHAR
STARTCHAR ncaron
ENCODING 328
SWIDTH 500 0
DWIDTH 8 0
BBX 7 10 0 0
BITMAP
6C
38
10
00
DC
66
66
66
66
66
ENDCHAR
STARTCHAR napostrophe
ENCODING 329
SWIDTH 500 0
DWIDTH 8 0
BBX 7 10 0 0
BITMAP
60
60
C0
00
DC
66
66
66
66
66
ENDCHAR
STARTCHAR Eng
ENCODING 330
SWIDTH 500 0
DWIDTH 8 0
BBX 7 11 0 -2
BITMAP
C6
E6
F6
FE
DE
CE
C6
C6
C6
06
1C
ENDCHAR
STARTCHAR eng
ENCODING 331
SWIDTH 500 0
DWIDTH 8 0
BBX 7 8 0 -2
BITMAP
DC
66
66
66
66
66
06
1C
ENDCHAR
STARTCHAR Omacron
ENCODING 332
SWIDTH 500 0
DWIDTH 8 0
BBX 7 11 0 0
BITMAP
7C
00
38
6C
C6
C6
C6
C6
C6
6C
38
ENDCHAR
STARTCHAR omacron
ENCODING 333
SWIDTH 500 0
DWIDTH 8 0
BBX 7 8 0 0
BITMAP
7C
00
7C
C6
C6
C6
C6
7C
ENDCHAR
STARTCHAR Obreve
ENCODING 334
SWIDTH 500 0
DWIDTH 8 0
BBX 7 11 0 0
BITMAP
C6
7C
00
38
6C
C6
C6
C6
C6
6C
38
ENDCHAR
STARTCHAR obreve
ENCODING 335
SWIDTH 500 0
DWIDTH 8 0
BBX 7 9 0 0
BITMAP
C6
7C
00
7C
C6
C6
C6
C6
7C
ENDCHAR
STARTCHAR Ohungarumlaut
ENCODING 336
SWIDTH 500 0
DWIDTH 8 0
BBX 7 11 0 0
BITMAP
66
CC
00
38
6C
C6
C6
C6
C6
6C
38
ENDCHAR
STARTCHAR ohungarumlaut
ENCODING 337
SWIDTH 500 0
DWIDTH 8 0
BBX 8 10 0 0
BITMAP
33
66
CC
00
7C
C6
C6
C6
C6
7C
ENDCHAR
STARTCHAR OE
ENCODING 338
SWIDTH 500 0
DWIDTH 8 0
BBX 7 9 0 0
BITMAP
3E
6C
CC
CC
CE
CC
CC
6C
3E
ENDCHAR
STARTCHAR oe
ENCODING 339
SWIDTH 500 0
DWIDTH 8 0
BBX 7 7 0 0
BITMAP
6C
D6
D6
DE
D8
D8
6E
ENDCHAR
STARTCHAR Racute
ENCODING 340
SWIDTH 500 0
DWIDTH 8 0
BBX 7 11 0 0
BITMAP
0C
18
00
FC
66
66
66
7C
6C
66
E6
ENDCHAR
STARTCHAR racute
ENCODING 341
SWIDTH 500 0
DWIDTH 8 0
BBX 7 10 0 0
BITMAP
06
0C
18
00
DC
76
66
60
60
F0
ENDCHAR
STARTCHAR Rcommaaccent
ENCODING 342
SWIDTH 500 0
DWIDTH 8 0
BBX 7 11 0 -2
BITMAP
FC
66
66
66
7C
6C
66
66
E6
18
70
ENDCHAR
STARTCHAR rcommaaccent
ENCODING 343
SWIDTH 500 0
DWIDTH 8 0
BBX 7 8 0 -2
BITMAP
DC
76
66
60
60
F0
18
70
ENDCHAR
STARTCHAR Rcaron
ENCODING 344
SWIDTH 500 0
DWIDTH 8 0
BBX 7 11 0 0
BITMAP
6C
38
00
FC
66
66
66
7C
6C
66
E6
ENDCHAR
STARTCHAR rcaron
ENCODING 345
SWIDTH 500 0
DWIDTH 8 0
BBX 7 10 0 0
BITMAP
6C
38
10
00
DC
76
66
60
60
F0
ENDCHAR
STARTCHAR Sacute
ENCODING 346
SWIDTH 500 0
DWIDTH 8 0
BBX 7 11 0 0
BITMAP
0C
18
00
7C
C6
C0
70
1C
06
C6
7C
ENDCHAR
STARTCHAR sacute
ENCODING 347
SWIDTH 500 0
DWIDTH 8 0
BBX 7 10 0 0
BITMAP
06
0C
18
00
7C
C6
70
1C
C6
7C
ENDCHAR
STARTCHAR Scircumflex
ENCODING 348
SWIDTH 500 0
DWIDTH 8 0
BBX 7 11 0 0
BITMAP
38
6C
00
7C
C6
C0
70
1C
06
C6
7C
ENDCHAR
STARTCHAR scircumflex
ENCODING 349
SWIDTH 500 0
DWIDTH 8 0
BBX 7 10 0 0
BITMAP
10
38
6C
00
7C
C6
70
1C
C6
7C
ENDCHAR
STARTCHAR Scedilla
ENCODING 350
SWIDTH 500 0
DWIDTH 8 0
BBX 7 11 0 -2
BITMAP
7C
C6
C6
60
38
0C
C6
C6
7C
18
70
ENDCHAR
STARTCHAR scedilla
ENCODING 351
SWIDTH 500 0
DWIDTH 8 0
BBX 7 8 0 -2
BITMAP
7C
C6
70
1C
C6
7C
18
70
ENDCHAR
STARTCHAR Scaron
ENCODING 352
SWIDTH 500 0
DWIDTH 8 0
BBX 7 11 0 0
BITMAP
6C
38
00
7C
C6
C0
70
1C
06
C6
7C
ENDCHAR
STARTCHAR scaron
ENCODING 353
SWIDTH 500 0
DWIDTH 8 0
BBX 7 10 0 0
BITMAP
6C
38
10
00
7C
C6
70
1C
C6
7C
ENDCHAR
STARTCHAR Tcommaaccent
ENCODING 354
SWIDTH 500 0
DWIDTH 8 0
BBX 6 11 1 -2
BITMAP
FC
FC
B4
30
30
30
30
30
78
30
E0
ENDCHAR
STARTCHAR tcommaaccent
ENCODING 355
SWIDTH 500 0
DWIDTH 8 0
BBX 7 11 0 -2
BITMAP
10
30
30
FC
30
30
30
36
1C
0C
38
ENDCHAR
STARTCHAR Tcaron
ENCODING 356
SWIDTH 500 0
DWIDTH 8 0
BBX 6 11 1 0
BITMAP
6C
38
00
FC
FC
B4
30
30
30
30
78
ENDCHAR
STARTCHAR tcaron
ENCODING 357
SWIDTH 500 0
DWIDTH 8 0
BBX 7 10 0 0
BITMAP
06
12
34
30
FC
30
30
30
36
1C
ENDCHAR
STARTCHAR Tbar
ENCODING 358
SWIDTH 500 0
DWIDTH 8 0
BBX 6 9 1 0
BITMAP
FC
FC
B4
30
FC
30
30
30
78
ENDCHAR
STARTCHAR tbar
ENCODING 359
SWIDTH 500 0
DWIDTH 8 0
BBX 7 9 0 0
BITMAP
10
30
30
FC
30
FC
30
36
1C
ENDCHAR
STARTCHAR Utilde
ENCODING 360
SWIDTH 500 0
DWIDTH 8 0
BBX 7 11 0 0
BITMAP
76
DC
00
C6
C6
C6
C6
C6
C6
C6
7C
ENDCHAR
STARTCHAR utilde
ENCODING 361
SWIDTH 500 0
DWIDTH 8 0
BBX 7 9 0 0
BITMAP
76
DC
00
CC
CC
CC
CC
CC
76
ENDCHAR
STARTCHAR Umacron
ENCODING 362
SWIDTH 500 0
DWIDTH 8 0
BBX 7 10 0 0
BITMAP
FE
00
C6
C6
C6
C6
C6
C6
C6
7C
ENDCHAR
STARTCHAR umacron
ENCODING 363
SWIDTH 500 0
DWIDTH 8 0
BBX 7 8 0 0
BITMAP
FC
00
CC
CC
CC
CC
CC
76
ENDCHAR
STARTCHAR Ubreve
ENCODING 364
SWIDTH 500 0
DWIDTH 8 0
BBX 7 11 0 0
BITMAP
C6
7C
00
C6
C6
C6
C6
C6
C6
C6
7C
ENDCHAR
STARTCHAR ubreve
ENCODING 365
SWIDTH 500 0
DWIDTH 8 0
BBX 7 9 0 0
BITMAP
C6
7C
00
CC
CC
CC
CC
CC
76
ENDCHAR
STARTCHAR Uring
ENCODING 366
SWIDTH 500 0
DWIDTH 8 0
BBX 7 11 0 0
BITMAP
38
6C
38
C6
C6
C6
C6
C6
C6
C6
7C
ENDCHAR
STARTCHAR uring
ENCODING 367
SWIDTH 500 0
DWIDTH 8 0
BBX 7 10 0 0
BITMAP
38
6C
38
00
CC
CC
CC
CC
CC
76
ENDCHAR
STARTCHAR Uhungarumlaut
ENCODING 368
SWIDTH 500 0
DWIDTH 8 0
BBX 7 11 0 0
BITMAP
66
CC
00
C6
C6
C6
C6
C6
C6
C6
7C
ENDCHAR
STARTCHAR uhungarumlaut
ENCODING 369
SWIDTH 500 0
DWIDTH 8 0
BBX 8 10 0 0
BITMAP
33
66
CC
00
CC
CC
CC
CC
CC
76
ENDCHAR
STARTCHAR Uogonek
ENCODING 370
SWIDTH 500 0
DWIDTH 8 0
BBX 7 11 0 -2
BITMAP
C6
C6
C6
C6
C6
C6
C6
C6
7C
18
0E
ENDCHAR
STARTCHAR uogonek
ENCODING 371
SWIDTH 500 0
DWIDTH 8 0
BBX 7 8 0 -2
BITMAP
CC
CC
CC
CC
CC
76
18
0E
ENDCHAR
STARTCHAR Wcircumflex
ENCODING 372
SWIDTH 500 0
DWIDTH 8 0
BBX 7 11 0 0
BITMAP
38
6C
00
C6
C6
C6
D6
D6
FE
7C
6C
ENDCHAR
STARTCHAR wcircumflex
ENCODING 373
SWIDTH 500 0
DWIDTH 8 0
BBX 7 10 0 0
BITMAP
10
38
6C
00
C6
C6
D6
D6
FE
6C
ENDCHAR
STARTCHAR Ycircumflex
ENCODING 374
SWIDTH 500 0
DWIDTH 8 0
BBX 6 11 1 0
BITMAP
78
CC
00
CC
CC
CC
78
30
30
30
78
ENDCHAR
STARTCHAR ycircumflex
ENCODING 375
SWIDTH 500 0
DWIDTH 8 0
BBX 7 12 0 -2
BITMAP
10
38
6C
00
C6
C6
C6
C6
7E
06
0C
78
ENDCHAR
STARTCHAR Ydieresis
ENCODING 376
SWIDTH 500 0
DWIDTH 8 0
BBX 6 11 1 0
BITMAP
CC
CC
00
CC
CC
CC
78
30
30
30
78
ENDCHAR
STARTCHAR Zacute
ENCODING 377
SWIDTH 500 0
DWIDTH 8 0
BBX 7 11 0 0
BITMAP
0C
18
00
FE
C6
8C
18
30
62
C6
FE
ENDCHAR
STARTCHAR zacute
ENCODING 378
SWIDTH 500 0
DWIDTH 8 0
BBX 7 10 0 0
BITMAP
06
0C
18
00
FE
CC
18
30
66
FE
ENDCHAR
STARTCHAR Zdotaccent
ENCODING 379
SWIDTH 500 0
DWIDTH 8 0
BBX 7 11 0 0
BITMAP
18
18
00
FE
C6
8C
18
30
62
C6
FE
ENDCHAR
STARTCHAR zdotaccent
ENCODING 380
SWIDTH 500 0
DWIDTH 8 0
BBX 7 9 0 0
BITMAP
18
18
00
FE
CC
18
30
66
FE
ENDCHAR
STARTCHAR Zcaron
ENCODING 381
SWIDTH 500 0
DWIDTH 8 0
BBX 7 11 0 0
BITMAP
6C
38
00
FE
C6
8C
18
30
62
C6
FE
ENDCHAR
STARTCHAR zcaron
ENCODING 382
SWIDTH 500 0
DWIDTH 8 0
BBX 7 10 0 0
BITMAP
6C
38
10
00
FE
CC
18
30
66
FE
ENDCHAR
STARTCHAR longs
ENCODING 383
SWIDTH 500 0
DWIDTH 8 0
BBX 6 9 1 0
BITMAP
38
6C
64
60
60
60
60
60
F0
ENDCHAR
STARTCHAR florin
ENCODING 402
SWIDTH 500 0
DWIDTH 8 0
BBX 8 12 0 -2
BITMAP
0E
1B
18
18
18
7E
18
18
18
18
D8
70
ENDCHAR
STARTCHAR ohorn
ENCODING 417
SWIDTH 500 0
DWIDTH 8 0
BBX 7 6 0 0
BITMAP
7E
D8
D8
D8
D8
70
ENDCHAR
STARTCHAR uni01B7
ENCODING 439
SWIDTH 500 0
DWIDTH 8 0
BBX 7 9 0 0
BITMAP
FE
C6
0C
18
3C
06
06
C6
7C
ENDCHAR
STARTCHAR Aringacute
ENCODING 506
SWIDTH 500 0
DWIDTH 8 0
BBX 7 11 0 0
BITMAP
3A
6C
38
00
38
6C
C6
C6
FE
C6
C6
ENDCHAR
STARTCHAR aringacute
ENCODING 507
SWIDTH 500 0
DWIDTH 8 0
BBX 7 11 0 0
BITMAP
0C
38
6C
38
00
78
0C
7C
CC
CC
76
ENDCHAR
STARTCHAR AEacute
ENCODING 508
SWIDTH 500 0
DWIDTH 8 0
BBX 7 11 0 0
BITMAP
0C
18
00
3E
6C
CC
FE
CC
CC
CC
CE
ENDCHAR
STARTCHAR aeacute
ENCODING 509
SWIDTH 500 0
DWIDTH 8 0
BBX 7 11 0 0
BITMAP
0C
18
30
00
CC
76
36
7E
D8
D8
6E
ENDCHAR
STARTCHAR Oslashacute
ENCODING 510
SWIDTH 500 0
DWIDTH 8 0
BBX 7 12 0 -1
BITMAP
18
30
06
3C
6C
CE
D6
D6
E6
6C
78
C0
ENDCHAR
STARTCHAR oslashacute
ENCODING 511
SWIDTH 500 0
DWIDTH 8 0
BBX 7 10 0 0
BITMAP
18
30
60
00
7C
CE
DE
F6
E6
7C
ENDCHAR
STARTCHAR Scommaaccent
ENCODING 536
SWIDTH 500 0
DWIDTH 8 0
BBX 7 11 0 -2
BITMAP
7C
C6
C6
60
38
0C
C6
C6
7C
18
30
ENDCHAR
STARTCHAR scommaaccent
ENCODING 537
SWIDTH 500 0
DWIDTH 8 0
BBX 7 8 0 -2
BITMAP
7C
C6
70
1C
C6
7C
18
30
ENDCHAR
STARTCHAR uni021A
ENCODING 538
SWIDTH 500 0
DWIDTH 8 0
BBX 6 11 1 -2
BITMAP
FC
FC
B4
30
30
30
30
30
78
30
60
ENDCHAR
STARTCHAR uni021B
ENCODING 539
SWIDTH 500 0
DWIDTH 8 0
BBX 7 11 0 -2
BITMAP
10
30
30
FC
30
30
30
36
1C
0C
18
ENDCHAR
STARTCHAR uni0251
ENCODING 593
SWIDTH 500 0
DWIDTH 8 0
BBX 7 6 0 0
BITMAP
76
DC
D8
D8
DC
76
ENDCHAR
STARTCHAR uni0278
ENCODING 632
SWIDTH 500 0
DWIDTH 8 0
BBX 6 9 1 0
BITMAP
FC
30
78
CC
CC
CC
78
30
FC
ENDCHAR
STARTCHAR circumflex
ENCODING 710
SWIDTH 500 0
DWIDTH 8 0
BBX 5 3 1 7
BITMAP
20
70
D8
ENDCHAR
STARTCHAR caron
ENCODING 711
SWIDTH 500 0
DWIDTH 8 0
BBX 5 3 1 7
BITMAP
D8
70
20
ENDCHAR
STARTCHAR uni02C9
ENCODING 713
SWIDTH 500 0
DWIDTH 8 0
BBX 5 1 1 9
BITMAP
F8
ENDCHAR
STARTCHAR breve
ENCODING 728
SWIDTH 500 0
DWIDTH 8 0
BBX 7 2 0 8
BITMAP
C6
7C
ENDCHAR
STARTCHAR dotaccent
ENCODING 729
SWIDTH 500 0
DWIDTH 8 0
BBX 2 2 3 8
BITMAP
C0
C0
ENDCHAR
STARTCHAR ring
ENCODING 730
SWIDTH 500 0
DWIDTH 8 0
BBX 5 3 1 8
BITMAP
70
D8
70
ENDCHAR
STARTCHAR ogonek
ENCODING 731
SWIDTH 500 0
DWIDTH 8 0
BBX 4 2 2 -2
BITMAP
C0
70
ENDCHAR
STARTCHAR tilde
ENCODING 732
SWIDTH 500 0
DWIDTH 8 0
BBX 7 2 0 8
BITMAP
76
DC
ENDCHAR
STARTCHAR hungarumlaut
ENCODING 733
SWIDTH 500 0
DWIDTH 8 0
BBX 7 2 0 8
BITMAP
66
CC
ENDCHAR
STARTCHAR uni037E
ENCODING 894
SWIDTH 500 0
DWIDTH 8 0
BBX 3 8 2 0
BITMAP
60
60
00
00
00
60
60
C0
ENDCHAR
STARTCHAR tonos
ENCODING 900
SWIDTH 500 0
DWIDTH 8 0
BBX 3 3 3 8
BITMAP
60
C0
80
ENDCHAR
STARTCHAR dieresistonos
ENCODING 901
SWIDTH 500 0
DWIDTH 8 0
BBX 6 4 1 7
BITMAP
08
10
CC
CC
ENDCHAR
STARTCHAR Alphatonos
ENCODING 902
SWIDTH 500 0
DWIDTH 8 0
BBX 7 11 0 0
BITMAP
80
80
10
38
6C
C6
C6
FE
C6
C6
C6
ENDCHAR
STARTCHAR anoteleia
ENCODING 903
SWIDTH 500 0
DWIDTH 8 0
BBX 2 2 3 4
BITMAP
C0
C0
ENDCHAR
STARTCHAR Epsilontonos
ENCODING 904
SWIDTH 500 0
DWIDTH 8 0
BBX 7 11 0 0
BITMAP
80
80
FE
66
62
68
78
68
62
66
FE
ENDCHAR
STARTCHAR Etatonos
ENCODING 905
SWIDTH 500 0
DWIDTH 8 0
BBX 7 11 0 0
BITMAP
80
80
66
66
66
66
7E
66
66
66
66
ENDCHAR
STARTCHAR Iotatonos
ENCODING 906
SWIDTH 500 0
DWIDTH 8 0
BBX 6 11 0 0
BITMAP
80
80
3C
18
18
18
18
18
18
18
3C
ENDCHAR
STARTCHAR Omicrontonos
ENCODING 908
SWIDTH 500 0
DWIDTH 8 0
BBX 7 11 0 0
BITMAP
80
80
38
6C
C6
C6
C6
C6
C6
6C
38
ENDCHAR
STARTCHAR Upsilontonos
ENCODING 910
SWIDTH 500 0
DWIDTH 8 0
BBX 7 11 0 0
BITMAP
80
80
66
66
66
66
3C
18
18
18
3C
ENDCHAR
STARTCHAR Omegatonos
ENCODING 911
SWIDTH 500 0
DWIDTH 8 0
BBX 7 11 0 0
BITMAP
80
80
38
6C
C6
C6
C6
C6
6C
6C
EE
ENDCHAR
STARTCHAR iotadieresistonos
ENCODING 912
SWIDTH 500 0
DWIDTH 8 0
BBX 6 11 0 0
BITMAP
08
10
CC
CC
00
30
30
30
30
34
18
ENDCHAR
STARTCHAR Alpha
ENCODING 913
SWIDTH 500 0
DWIDTH 8 0
BBX 7 9 0 0
BITMAP
10
38
6C
C6
C6
FE
C6
C6
C6
ENDCHAR
STARTCHAR Beta
ENCODING 914
SWIDTH 500 0
DWIDTH 8 0
BBX 7 9 0 0
BITMAP
FC
66
66
66
7C
66
66
66
FC
ENDCHAR
STARTCHAR Gamma
ENCODING 915
SWIDTH 500 0
DWIDTH 8 0
BBX 7 9 0 0
BITMAP
FE
66
62
60
60
60
60
60
F0
ENDCHAR
STARTCHAR uni0394
ENCODING 916
SWIDTH 500 0
DWIDTH 8 0
BBX 7 9 0 0
BITMAP
10
38
6C
C6
C6
C6
C6
C6
FE
ENDCHAR
STARTCHAR Epsilon
ENCODING 917
SWIDTH 500 0
DWIDTH 8 0
BBX 7 9 0 0
BITMAP
FE
66
62
68
78
68
62
66
FE
ENDCHAR
STARTCHAR Zeta
ENCODING 918
SWIDTH 500 0
DWIDTH 8 0
BBX 7 9 0 0
BITMAP
FE
C6
8C
18
30
60
C2
C6
FE
ENDCHAR
STARTCHAR Eta
ENCODING 919
SWIDTH 500 0
DWIDTH 8 0
BBX 7 9 0 0
BITMAP
C6
C6
C6
C6
FE
C6
C6
C6
C6
ENDCHAR
STARTCHAR Theta
ENCODING 920
SWIDTH 500 0
DWIDTH 8 0
BBX 7 9 0 0
BITMAP
38
6C
C6
C6
FE
C6
C6
6C
38
ENDCHAR
STARTCHAR Iota
ENCODING 921
SWIDTH 500 0
DWIDTH 8 0
BBX 4 9 2 0
BITMAP
F0
60
60
60
60
60
60
60
F0
ENDCHAR
STARTCHAR Kappa
ENCODING 922
SWIDTH 500 0
DWIDTH 8 0
BBX 7 9 0 0
BITMAP
E6
66
6C
6C
78
6C
6C
66
E6
ENDCHAR
STARTCHAR Lambda
ENCODING 923
SWIDTH 500 0
DWIDTH 8 0
BBX 7 9 0 0
BITMAP
10
38
6C
C6
C6
C6
C6
C6
C6
ENDCHAR
STARTCHAR Mu
ENCODING 924
SWIDTH 500 0
DWIDTH 8 0
BBX 7 9 0 0
BITMAP
C6
EE
FE
FE
D6
C6
C6
C6
C6
ENDCHAR
STARTCHAR Nu
ENCODING 925
SWIDTH 500 0
DWIDTH 8 0
BBX 7 9 0 0
BITMAP
C6
E6
F6
FE
DE
CE
C6
C6
C6
ENDCHAR
STARTCHAR Xi
ENCODING 926
SWIDTH 500 0
DWIDTH 8 0
BBX 7 9 0 0
BITMAP
FE
C6
00
00
7C
00
00
C6
FE
ENDCHAR
STARTCHAR Omicron
ENCODING 927
SWIDTH 500 0
DWIDTH 8 0
BBX 7 9 0 0
BITMAP
38
6C
C6
C6
C6
C6
C6
6C
38
ENDCHAR
STARTCHAR Pi
ENCODING 928
SWIDTH 500 0
DWIDTH 8 0
BBX 7 9 0 0
BITMAP
FE
C6
C6
C6
C6
C6
C6
C6
C6
ENDCHAR
STARTCHAR Rho
ENCODING 929
SWIDTH 500 0
DWIDTH 8 0
BBX 7 9 0 0
BITMAP
FC
66
66
66
7C
60
60
60
F0
ENDCHAR
STARTCHAR Sigma
ENCODING 931
SWIDTH 500 0
DWIDTH 8 0
BBX 7 9 0 0
BITMAP
FE
C6
62
30
18
30
62
C6
FE
ENDCHAR
STARTCHAR Tau
ENCODING 932
SWIDTH 500 0
DWIDTH 8 0
BBX 6 9 1 0
BITMAP
FC
FC
B4
30
30
30
30
30
78
ENDCHAR
STARTCHAR Upsilon
ENCODING 933
SWIDTH 500 0
DWIDTH 8 0
BBX 6 9 1 0
BITMAP
CC
CC
CC
CC
78
30
30
30
78
ENDCHAR
STARTCHAR Phi
ENCODING 934
SWIDTH 500 0
DWIDTH 8 0
BBX 7 9 0 0
BITMAP
7C
D6
D6
D6
D6
7C
10
10
38
ENDCHAR
STARTCHAR Chi
ENCODING 935
SWIDTH 500 0
DWIDTH 8 0
BBX 7 9 0 0
BITMAP
C6
C6
6C
38
38
38
6C
C6
C6
ENDCHAR
STARTCHAR Psi
ENCODING 936
SWIDTH 500 0
DWIDTH 8 0
BBX 7 9 0 0
BITMAP
D6
D6
D6
D6
D6
7C
10
10
38
ENDCHAR
STARTCHAR uni03A9
ENCODING 937
SWIDTH 500 0
DWIDTH 8 0
BBX 7 9 0 0
BITMAP
38
6C
C6
C6
C6
C6
6C
6C
EE
ENDCHAR
STARTCHAR Iotadieresis
ENCODING 938
SWIDTH 500 0
DWIDTH 8 0
BBX 6 11 1 0
BITMAP
CC
CC
00
78
30
30
30
30
30
30
78
ENDCHAR
STARTCHAR Upsilondieresis
ENCODING 939
SWIDTH 500 0
DWIDTH 8 0
BBX 6 11 1 0
BITMAP
CC
CC
00
CC
CC
CC
78
30
30
30
78
ENDCHAR
STARTCHAR alphatonos
ENCODING 940
SWIDTH 500 0
DWIDTH 8 0
BBX 7 9 0 0
BITMAP
0C
18
00
74
CC
CC
CC
CC
76
ENDCHAR
STARTCHAR epsilontonos
ENCODING 941
SWIDTH 500 0
DWIDTH 8 0
BBX 6 9 1 0
BITMAP
0C
18
00
7C
C0
70
C0
C0
7C
ENDCHAR
STARTCHAR etatonos
ENCODING 942
SWIDTH 500 0
DWIDTH 8 0
BBX 7 11 0 -2
BITMAP
0C
18
00
DC
66
66
66
66
66
06
06
ENDCHAR
STARTCHAR iotatonos
ENCODING 943
SWIDTH 500 0
DWIDTH 8 0
BBX 4 9 2 0
BITMAP
30
60
00
C0
C0
C0
C0
D0
60
ENDCHAR
STARTCHAR upsilondieresistonos
ENCODING 944
SWIDTH 500 0
DWIDTH 8 0
BBX 7 11 0 0
BITMAP
08
10
CC
CC
00
CE
CC
CC
CC
CC
78
ENDCHAR
STARTCHAR alpha
ENCODING 945
SWIDTH 500 0
DWIDTH 8 0
BBX 7 6 0 0
BITMAP
74
CC
CC
CC
CC
76
ENDCHAR
STARTCHAR beta
ENCODING 946
SWIDTH 500 0
DWIDTH 8 0
BBX 7 11 0 -2
BITMAP
78
CC
CC
CC
D8
FC
C6
C6
FC
C0
80
ENDCHAR
STARTCHAR gamma
ENCODING 947
SWIDTH 500 0
DWIDTH 8 0
BBX 7 8 0 -2
BITMAP
C6
6C
38
38
6C
6C
6C
38
ENDCHAR
STARTCHAR delta
ENCODING 948
SWIDTH 500 0
DWIDTH 8 0
BBX 6 9 1 0
BITMAP
3C
60
30
18
7C
CC
CC
CC
78
ENDCHAR
STARTCHAR epsilon
ENCODING 949
SWIDTH 500 0
DWIDTH 8 0
BBX 6 6 1 0
BITMAP
7C
C0
70
C0
C0
7C
ENDCHAR
STARTCHAR zeta
ENCODING 950
SWIDTH 500 0
DWIDTH 8 0
BBX 7 11 0 -2
BITMAP
C0
7C
30
60
C0
C0
C0
60
3C
06
1C
ENDCHAR
STARTCHAR eta
ENCODING 951
SWIDTH 500 0
DWIDTH 8 0
BBX 7 8 0 -2
BITMAP
DC
66
66
66
66
66
06
06
ENDCHAR
STARTCHAR theta
ENCODING 952
SWIDTH 500 0
DWIDTH 8 0
BBX 7 9 0 0
BITMAP
3C
66
66
36
1E
C6
66
66
3C
ENDCHAR
STARTCHAR iota
ENCODING 953
SWIDTH 500 0
DWIDTH 8 0
BBX 4 6 2 0
BITMAP
C0
C0
C0
C0
D0
60
ENDCHAR
STARTCHAR kappa
ENCODING 954
SWIDTH 500 0
DWIDTH 8 0
BBX 7 6 0 0
BITMAP
C6
CC
D8
F8
EC
C6
ENDCHAR
STARTCHAR lambda
ENCODING 955
SWIDTH 500 0
DWIDTH 8 0
BBX 6 9 1 0
BITMAP
78
CC
0C
0C
7C
CC
CC
CC
CC
ENDCHAR
STARTCHAR uni03BC
ENCODING 956
SWIDTH 500 0
DWIDTH 8 0
BBX 7 8 0 -2
BITMAP
CC
CC
CC
CC
EC
DA
C0
C0
ENDCHAR
STARTCHAR nu
ENCODING 957
SWIDTH 500 0
DWIDTH 8 0
BBX 7 6 0 0
BITMAP
E6
66
66
6C
78
30
ENDCHAR
STARTCHAR xi
ENCODING 958
SWIDTH 500 0
DWIDTH 8 0
BBX 7 11 0 -2
BITMAP
C0
7C
60
C0
7C
60
C0
C0
7C
06
1C
ENDCHAR
STARTCHAR omicron
ENCODING 959
SWIDTH 500 0
DWIDTH 8 0
BBX 7 6 0 0
BITMAP
7C
C6
C6
C6
C6
7C
ENDCHAR
STARTCHAR pi
ENCODING 960
SWIDTH 500 0
DWIDTH 8 0
BBX 8 6 0 0
BITMAP
FF
66
66
66
66
66
ENDCHAR
STARTCHAR rho
ENCODING 961
SWIDTH 500 0
DWIDTH 8 0
BBX 7 8 0 -2
BITMAP
7C
C6
C6
C6
E6
DC
C0
C0
ENDCHAR
STARTCHAR sigma1
ENCODING 962
SWIDTH 500 0
DWIDTH 8 0
BBX 7 8 0 -2
BITMAP
7C
C6
C0
60
3C
06
06
7C
ENDCHAR
STARTCHAR sigma
ENCODING 963
SWIDTH 500 0
DWIDTH 8 0
BBX 7 6 0 0
BITMAP
7E
C8
CC
CC
CC
78
ENDCHAR
STARTCHAR tau
ENCODING 964
SWIDTH 500 0
DWIDTH 8 0
BBX 6 6 1 0
BITMAP
FC
30
30
30
34
18
ENDCHAR
STARTCHAR upsilon
ENCODING 965
SWIDTH 500 0
DWIDTH 8 0
BBX 7 6 0 0
BITMAP
CE
CC
CC
CC
CC
78
ENDCHAR
STARTCHAR phi
ENCODING 966
SWIDTH 500 0
DWIDTH 8 0
BBX 7 8 0 -2
BITMAP
1C
56
D6
D6
D6
7C
10
10
ENDCHAR
STARTCHAR chi
ENCODING 967
SWIDTH 500 0
DWIDTH 8 0
BBX 7 6 0 0
BITMAP
C2
6C
38
38
6C
86
ENDCHAR
STARTCHAR psi
ENCODING 968
SWIDTH 500 0
DWIDTH 8 0
BBX 7 8 0 -2
BITMAP
C6
D6
D6
D6
7C
10
10
10
ENDCHAR
STARTCHAR omega
ENCODING 969
SWIDTH 500 0
DWIDTH 8 0
BBX 7 6 0 0
BITMAP
44
C6
C6
D6
D6
6C
ENDCHAR
STARTCHAR iotadieresis
ENCODING 970
SWIDTH 500 0
DWIDTH 8 0
BBX 6 9 0 0
BITMAP
CC
CC
00
30
30
30
30
34
18
ENDCHAR
STARTCHAR upsilondieresis
ENCODING 971
SWIDTH 500 0
DWIDTH 8 0
BBX 7 9 0 0
BITMAP
CC
CC
00
CE
CC
CC
CC
CC
78
ENDCHAR
STARTCHAR omicrontonos
ENCODING 972
SWIDTH 500 0
DWIDTH 8 0
BBX 7 9 0 0
BITMAP
0C
18
00
7C
C6
C6
C6
C6
7C
ENDCHAR
STARTCHAR upsilontonos
ENCODING 973
SWIDTH 500 0
DWIDTH 8 0
BBX 7 9 0 0
BITMAP
0C
18
00
CE
CC
CC
CC
CC
78
ENDCHAR
STARTCHAR omegatonos
ENCODING 974
SWIDTH 500 0
DWIDTH 8 0
BBX 7 9 0 0
BITMAP
0C
18
00
44
C6
C6
D6
D6
6C
ENDCHAR
STARTCHAR uni03D0
ENCODING 976
SWIDTH 500 0
DWIDTH 8 0
BBX 7 9 0 -2
BITMAP
7C
C6
FC
C6
C6
FC
C0
C0
40
ENDCHAR
STARTCHAR uni03F4
ENCODING 1012
SWIDTH 500 0
DWIDTH 8 0
BBX 7 9 0 0
BITMAP
38
6C
C6
C6
FE
C6
C6
6C
38
ENDCHAR
STARTCHAR uni0400
ENCODING 1024
SWIDTH 500 0
DWIDTH 8 0
BBX 7 11 0 0
BITMAP
30
18
00
FE
66
60
7C
60
60
66
FE
ENDCHAR
STARTCHAR afii10023
ENCODING 1025
SWIDTH 500 0
DWIDTH 8 0
BBX 7 11 0 0
BITMAP
6C
6C
00
FE
66
60
7C
60
60
66
FE
ENDCHAR
STARTCHAR afii10051
ENCODING 1026
SWIDTH 500 0
DWIDTH 8 0
BBX 7 10 0 -1
BITMAP
FC
64
60
6C
76
66
66
66
E6
0C
ENDCHAR
STARTCHAR afii10052
ENCODING 1027
SWIDTH 500 0
DWIDTH 8 0
BBX 7 11 0 0
BITMAP
0C
18
00
FE
66
62
60
60
60
60
F0
ENDCHAR
STARTCHAR afii10053
ENCODING 1028
SWIDTH 500 0
DWIDTH 8 0
BBX 7 9 0 0
BITMAP
3C
66
C2
C8
F8
C8
C2
66
3C
ENDCHAR
STARTCHAR afii10054
ENCODING 1029
SWIDTH 500 0
DWIDTH 8 0
BBX 7 9 0 0
BITMAP
7C
C6
C6
60
38
0C
C6
C6
7C
ENDCHAR
STARTCHAR afii10055
ENCODING 1030
SWIDTH 500 0
DWIDTH 8 0
BBX 4 9 2 0
BITMAP
F0
60
60
60
60
60
60
60
F0
ENDCHAR
STARTCHAR afii10056
ENCODING 1031
SWIDTH 500 0
DWIDTH 8 0
BBX 6 10 1 0
BITMAP
CC
00
78
30
30
30
30
30
30
78
ENDCHAR
STARTCHAR afii10057
ENCODING 1032
SWIDTH 500 0
DWIDTH 8 0
BBX 7 9 0 0
BITMAP
1E
0C
0C
0C
0C
0C
CC
CC
78
ENDCHAR
STARTCHAR afii10058
ENCODING 1033
SWIDTH 500 0
DWIDTH 8 0
BBX 7 9 0 0
BITMAP
FC
D8
D8
D8
DC
DA
DA
DA
DC
ENDCHAR
STARTCHAR afii10059
ENCODING 1034
SWIDTH 500 0
DWIDTH 8 0
BBX 7 9 0 0
BITMAP
D8
D8
D8
D8
FC
DA
DA
DA
DC
ENDCHAR
STARTCHAR afii10060
ENCODING 1035
SWIDTH 500 0
DWIDTH 8 0
BBX 7 9 0 0
BITMAP
FC
64
60
60
7C
66
66
66
E6
ENDCHAR
STARTCHAR afii10061
ENCODING 1036
SWIDTH 500 0
DWIDTH 8 0
BBX 7 11 0 0
BITMAP
0C
18
00
E6
66
6C
78
6C
6C
66
E6
ENDCHAR
STARTCHAR uni040D
ENCODING 1037
SWIDTH 500 0
DWIDTH 8 0
BBX 7 11 0 0
BITMAP
30
18
00
C6
C6
CE
DE
F6
E6
C6
C6
ENDCHAR
STARTCHAR afii10062
ENCODING 1038
SWIDTH 500 0
DWIDTH 8 0
BBX 7 11 0 0
BITMAP
6C
38
00
C6
C6
C6
C6
7E
06
C6
7C
ENDCHAR
STARTCHAR afii10145
ENCODING 1039
SWIDTH 500 0
DWIDTH 8 0
BBX 7 10 0 -1
BITMAP
EE
6C
6C
6C
6C
6C
6C
6C
FE
10
ENDCHAR
STARTCHAR afii10017
ENCODING 1040
SWIDTH 500 0
DWIDTH 8 0
BBX 7 9 0 0
BITMAP
10
38
6C
C6
C6
FE
C6
C6
C6
ENDCHAR
STARTCHAR afii10018
ENCODING 1041
SWIDTH 500 0
DWIDTH 8 0
BBX 7 9 0 0
BITMAP
FE
66
62
60
7C
66
66
66
FC
ENDCHAR
STARTCHAR afii10019
ENCODING 1042
SWIDTH 500 0
DWIDTH 8 0
BBX 7 9 0 0
BITMAP
FC
66
66
66
7C
66
66
66
FC
ENDCHAR
STARTCHAR afii10020
ENCODING 1043
SWIDTH 500 0
DWIDTH 8 0
BBX 7 9 0 0
BITMAP
FE
66
62
60
60
60
60
60
F0
ENDCHAR
STARTCHAR afii10021
ENCODING 1044
SWIDTH 500 0
DWIDTH 8 0
BBX 8 11 0 -2
BITMAP
1E
36
66
66
66
66
66
66
FF
C3
81
ENDCHAR
STARTCHAR afii10022
ENCODING 1045
SWIDTH 500 0
DWIDTH 8 0
BBX 7 9 0 0
BITMAP
FE
66
62
68
78
68
62
66
FE
ENDCHAR
STARTCHAR afii10024
ENCODING 1046
SWIDTH 500 0
DWIDTH 8 0
BBX 7 9 0 0
BITMAP
D6
D6
D6
7C
7C
D6
D6
D6
D6
ENDCHAR
STARTCHAR afii10025
ENCODING 1047
SWIDTH 500 0
DWIDTH 8 0
BBX 7 9 0 0
BITMAP
7C
C6
86
06
3C
06
86
C6
7C
ENDCHAR
STARTCHAR afii10026
ENCODING 1048
SWIDTH 500 0
DWIDTH 8 0
BBX 7 9 0 0
BITMAP
C6
C6
C6
CE
DE
F6
E6
C6
C6
ENDCHAR
STARTCHAR afii10027
ENCODING 1049
SWIDTH 500 0
DWIDTH 8 0
BBX 7 11 0 0
BITMAP
6C
38
00
C6
C6
CE
DE
F6
E6
C6
C6
ENDCHAR
STARTCHAR afii10028
ENCODING 1050
SWIDTH 500 0
DWIDTH 8 0
BBX 7 9 0 0
BITMAP
E6
66
6C
6C
78
6C
6C
66
E6
ENDCHAR
STARTCHAR afii10029
ENCODING 1051
SWIDTH 500 0
DWIDTH 8 0
BBX 7 9 0 0
BITMAP
1E
36
66
66
66
66
66
66
C6
ENDCHAR
STARTCHAR afii10030
ENCODING 1052
SWIDTH 500 0
DWIDTH 8 0
BBX 7 9 0 0
BITMAP
C6
EE
FE
FE
D6
C6
C6
C6
C6
ENDCHAR
STARTCHAR afii10031
ENCODING 1053
SWIDTH 500 0
DWIDTH 8 0
BBX 7 9 0 0
BITMAP
C6
C6
C6
C6
FE
C6
C6
C6
C6
ENDCHAR
STARTCHAR afii10032
ENCODING 1054
SWIDTH 500 0
DWIDTH 8 0
BBX 7 9 0 0
BITMAP
38
6C
C6
C6
C6
C6
C6
6C
38
ENDCHAR
STARTCHAR afii10033
ENCODING 1055
SWIDTH 500 0
DWIDTH 8 0
BBX 7 9 0 0
BITMAP
FE
C6
C6
C6
C6
C6
C6
C6
C6
ENDCHAR
STARTCHAR afii10034
ENCODING 1056
SWIDTH 500 0
DWIDTH 8 0
BBX 7 9 0 0
BITMAP
FC
66
66
66
7C
60
60
60
F0
ENDCHAR
STARTCHAR afii10035
ENCODING 1057
SWIDTH 500 0
DWIDTH 8 0
BBX 7 9 0 0
BITMAP
3C
66
C2
C0
C0
C0
C2
66
3C
ENDCHAR
STARTCHAR afii10036
ENCODING 1058
SWIDTH 500 0
DWIDTH 8 0
BBX 6 9 1 0
BITMAP
FC
FC
B4
30
30
30
30
30
78
ENDCHAR
STARTCHAR afii10037
ENCODING 1059
SWIDTH 500 0
DWIDTH 8 0
BBX 7 9 0 0
BITMAP
C6
C6
C6
C6
7E
06
06
C6
7C
ENDCHAR
STARTCHAR afii10038
ENCODING 1060
SWIDTH 500 0
DWIDTH 8 0
BBX 7 9 0 0
BITMAP
38
10
7C
D6
D6
D6
7C
10
38
ENDCHAR
STARTCHAR afii10039
ENCODING 1061
SWIDTH 500 0
DWIDTH 8 0
BBX 7 9 0 0
BITMAP
C6
C6
6C
38
38
38
6C
C6
C6
ENDCHAR
STARTCHAR afii10040
ENCODING 1062
SWIDTH 500 0
DWIDTH 8 0
BBX 7 11 0 -2
BITMAP
CC
CC
CC
CC
CC
CC
CC
CC
FE
06
02
ENDCHAR
STARTCHAR afii10041
ENCODING 1063
SWIDTH 500 0
DWIDTH 8 0
BBX 7 9 0 0
BITMAP
C6
C6
C6
C6
7E
06
06
06
06
ENDCHAR
STARTCHAR afii10042
ENCODING 1064
SWIDTH 500 0
DWIDTH 8 0
BBX 7 9 0 0
BITMAP
D6
D6
D6
D6
D6
D6
D6
D6
FE
ENDCHAR
STARTCHAR afii10043
ENCODING 1065
SWIDTH 500 0
DWIDTH 8 0
BBX 8 11 0 -2
BITMAP
D6
D6
D6
D6
D6
D6
D6
D6
FF
03
01
ENDCHAR
STARTCHAR afii10044
ENCODING 1066
SWIDTH 500 0
DWIDTH 8 0
BBX 7 9 0 0
BITMAP
F0
F0
B0
3C
36
36
36
36
7C
ENDCHAR
STARTCHAR afii10045
ENCODING 1067
SWIDTH 500 0
DWIDTH 8 0
BBX 7 9 0 0
BITMAP
C6
C6
C6
E6
D6
D6
D6
D6
E6
ENDCHAR
STARTCHAR afii10046
ENCODING 1068
SWIDTH 500 0
DWIDTH 8 0
BBX 7 9 0 0
BITMAP
F0
60
60
7C
66
66
66
66
FC
ENDCHAR
STARTCHAR afii10047
ENCODING 1069
SWIDTH 500 0
DWIDTH 8 0
BBX 7 9 0 0
BITMAP
78
CC
86
26
3E
26
86
CC
78
ENDCHAR
STARTCHAR afii10048
ENCODING 1070
SWIDTH 500 0
DWIDTH 8 0
BBX 7 9 0 0
BITMAP
CC
D6
D6
D6
F6
D6
D6
D6
CC
ENDCHAR
STARTCHAR afii10049
ENCODING 1071
SWIDTH 500 0
DWIDTH 8 0
BBX 7 9 0 0
BITMAP
7E
CC
CC
CC
7C
6C
CC
CC
CE
ENDCHAR
STARTCHAR afii10065
ENCODING 1072
SWIDTH 500 0
DWIDTH 8 0
BBX 7 6 0 0
BITMAP
78
0C
7C
CC
CC
76
ENDCHAR
STARTCHAR afii10066
ENCODING 1073
SWIDTH 500 0
DWIDTH 8 0
BBX 7 8 0 0
BITMAP
0C
78
C0
C0
FC
C6
C6
7C
ENDCHAR
STARTCHAR afii10067
ENCODING 1074
SWIDTH 500 0
DWIDTH 8 0
BBX 7 6 0 0
BITMAP
FC
66
7C
66
66
FC
ENDCHAR
STARTCHAR afii10068
ENCODING 1075
SWIDTH 500 0
DWIDTH 8 0
BBX 7 6 0 0
BITMAP
FE
66
62
60
60
F0
ENDCHAR
STARTCHAR afii10069
ENCODING 1076
SWIDTH 500 0
DWIDTH 8 0
BBX 7 8 0 -2
BITMAP
3C
3C
6C
CC
CC
FE
C6
82
ENDCHAR
STARTCHAR afii10070
ENCODING 1077
SWIDTH 500 0
DWIDTH 8 0
BBX 7 6 0 0
BITMAP
7C
C6
FE
C0
C6
7C
ENDCHAR
STARTCHAR afii10072
ENCODING 1078
SWIDTH 500 0
DWIDTH 8 0
BBX 7 6 0 0
BITMAP
D6
D6
7C
D6
D6
D6
ENDCHAR
STARTCHAR afii10073
ENCODING 1079
SWIDTH 500 0
DWIDTH 8 0
BBX 7 6 0 0
BITMAP
7C
C6
1C
06
C6
7C
ENDCHAR
STARTCHAR afii10074
ENCODING 1080
SWIDTH 500 0
DWIDTH 8 0
BBX 7 6 0 0
BITMAP
C6
CE
DE
F6
E6
C6
ENDCHAR
STARTCHAR afii10075
ENCODING 1081
SWIDTH 500 0
DWIDTH 8 0
BBX 7 9 0 0
BITMAP
6C
38
00
C6
CE
DE
F6
E6
C6
ENDCHAR
STARTCHAR afii10076
ENCODING 1082
SWIDTH 500 0
DWIDTH 8 0
BBX 7 6 0 0
BITMAP
E6
6C
78
6C
66
E6
ENDCHAR
STARTCHAR afii10077
ENCODING 1083
SWIDTH 500 0
DWIDTH 8 0
BBX 7 6 0 0
BITMAP
1E
36
66
66
66
C6
ENDCHAR
STARTCHAR afii10078
ENCODING 1084
SWIDTH 500 0
DWIDTH 8 0
BBX 7 6 0 0
BITMAP
C6
EE
FE
D6
D6
C6
ENDCHAR
STARTCHAR afii10079
ENCODING 1085
SWIDTH 500 0
DWIDTH 8 0
BBX 7 6 0 0
BITMAP
C6
C6
FE
C6
C6
C6
ENDCHAR
STARTCHAR afii10080
ENCODING 1086
SWIDTH 500 0
DWIDTH 8 0
BBX 7 6 0 0
BITMAP
7C
C6
C6
C6
C6
7C
ENDCHAR
STARTCHAR afii10081
ENCODING 1087
SWIDTH 500 0
DWIDTH 8 0
BBX 7 6 0 0
BITMAP
FE
C6
C6
C6
C6
C6
ENDCHAR
STARTCHAR afii10082
ENCODING 1088
SWIDTH 500 0
DWIDTH 8 0
BBX 7 8 0 -2
BITMAP
DC
66
66
66
7C
60
60
F0
ENDCHAR
STARTCHAR afii10083
ENCODING 1089
SWIDTH 500 0
DWIDTH 8 0
BBX 7 6 0 0
BITMAP
7C
C6
C0
C0
C6
7C
ENDCHAR
STARTCHAR afii10084
ENCODING 1090
SWIDTH 500 0
DWIDTH 8 0
BBX 6 6 1 0
BITMAP
FC
B4
30
30
30
78
ENDCHAR
STARTCHAR afii10085
ENCODING 1091
SWIDTH 500 0
DWIDTH 8 0
BBX 7 8 0 -2
BITMAP
C6
C6
C6
C6
7E
06
0C
78
ENDCHAR
STARTCHAR afii10086
ENCODING 1092
SWIDTH 500 0
DWIDTH 8 0
BBX 7 11 0 -2
BITMAP
10
10
10
7C
D6
D6
D6
7C
10
10
10
ENDCHAR
STARTCHAR afii10087
ENCODING 1093
SWIDTH 500 0
DWIDTH 8 0
BBX 7 6 0 0
BITMAP
C6
6C
38
38
6C
C6
ENDCHAR
STARTCHAR afii10088
ENCODING 1094
SWIDTH 500 0
DWIDTH 8 0
BBX 7 8 0 -2
BITMAP
CC
CC
CC
CC
CC
FE
06
02
ENDCHAR
STARTCHAR afii10089
ENCODING 1095
SWIDTH 500 0
DWIDTH 8 0
BBX 7 6 0 0
BITMAP
C6
C6
C6
7E
06
06
ENDCHAR
STARTCHAR afii10090
ENCODING 1096
SWIDTH 500 0
DWIDTH 8 0
BBX 7 6 0 0
BITMAP
D6
D6
D6
D6
D6
FE
ENDCHAR
STARTCHAR afii10091
ENCODING 1097
SWIDTH 500 0
DWIDTH 8 0
BBX 8 8 0 -2
BITMAP
D6
D6
D6
D6
D6
FF
03
01
ENDCHAR
STARTCHAR afii10092
ENCODING 1098
SWIDTH 500 0
DWIDTH 8 0
BBX 7 6 0 0
BITMAP
F0
B0
3C
36
36
7C
ENDCHAR
STARTCHAR afii10093
ENCODING 1099
SWIDTH 500 0
DWIDTH 8 0
BBX 7 6 0 0
BITMAP
C6
C6
E6
D6
D6
E6
ENDCHAR
STARTCHAR afii10094
ENCODING 1100
SWIDTH 500 0
DWIDTH 8 0
BBX 6 6 1 0
BITMAP
F0
60
78
6C
6C
F8
ENDCHAR
STARTCHAR afii10095
ENCODING 1101
SWIDTH 500 0
DWIDTH 8 0
BBX 7 6 0 0
BITMAP
7C
C6
1E
06
C6
7C
ENDCHAR
STARTCHAR afii10096
ENCODING 1102
SWIDTH 500 0
DWIDTH 8 0
BBX 7 6 0 0
BITMAP
CC
D6
F6
D6
D6
CC
ENDCHAR
STARTCHAR afii10097
ENCODING 1103
SWIDTH 500 0
DWIDTH 8 0
BBX 7 6 0 0
BITMAP
3E
6C
6C
3C
6C
EE
ENDCHAR
STARTCHAR uni0450
ENCODING 1104
SWIDTH 500 0
DWIDTH 8 0
BBX 7 10 0 0
BITMAP
60
30
18
00
7C
C6
FE
C0
C6
7C
ENDCHAR
STARTCHAR afii10071
ENCODING 1105
SWIDTH 500 0
DWIDTH 8 0
BBX 7 9 0 0
BITMAP
CC
CC
00
7C
C6
FE
C0
C6
7C
ENDCHAR
STARTCHAR afii10099
ENCODING 1106
SWIDTH 500 0
DWIDTH 8 0
BBX 7 11 0 -2
BITMAP
60
F8
60
6C
76
66
66
66
E6
06
0C
ENDCHAR
STARTCHAR afii10100
ENCODING 1107
SWIDTH 500 0
DWIDTH 8 0
BBX 7 10 0 0
BITMAP
0C
18
30
00
FE
66
62
60
60
F0
ENDCHAR
STARTCHAR afii10101
ENCODING 1108
SWIDTH 500 0
DWIDTH 8 0
BBX 7 6 0 0
BITMAP
7C
C6
F0
C0
C6
7C
ENDCHAR
STARTCHAR afii10102
ENCODING 1109
SWIDTH 500 0
DWIDTH 8 0
BBX 7 6 0 0
BITMAP
7C
C6
70
1C
C6
7C
ENDCHAR
STARTCHAR afii10103
ENCODING 1110
SWIDTH 500 0
DWIDTH 8 0
BBX 4 9 2 0
BITMAP
60
60
00
E0
60
60
60
60
F0
ENDCHAR
STARTCHAR afii10104
ENCODING 1111
SWIDTH 500 0
DWIDTH 8 0
BBX 6 9 1 0
BITMAP
CC
CC
00
70
30
30
30
30
78
ENDCHAR
STARTCHAR afii10105
ENCODING 1112
SWIDTH 500 0
DWIDTH 8 0
BBX 6 11 1 -2
BITMAP
0C
0C
00
1C
0C
0C
0C
0C
CC
CC
78
ENDCHAR
STARTCHAR afii10106
ENCODING 1113
SWIDTH 500 0
DWIDTH 8 0
BBX 7 6 0 0
BITMAP
FC
D8
DC
DA
DA
DC
ENDCHAR
STARTCHAR afii10107
ENCODING 1114
SWIDTH 500 0
DWIDTH 8 0
BBX 7 6 0 0
BITMAP
D8
D8
FC
DA
DA
DC
ENDCHAR
STARTCHAR afii10108
ENCODING 1115
SWIDTH 500 0
DWIDTH 8 0
BBX 7 9 0 0
BITMAP
60
F8
60
7C
66
66
66
66
E6
ENDCHAR
STARTCHAR afii10109
ENCODING 1116
SWIDTH 500 0
DWIDTH 8 0
BBX 7 9 0 0
BITMAP
18
30
00
E6
6C
78
6C
66
E6
ENDCHAR
STARTCHAR uni045D
ENCODING 1117
SWIDTH 500 0
DWIDTH 8 0
BBX 7 10 0 0
BITMAP
60
30
18
00
C6
CE
DE
F6
E6
C6
ENDCHAR
STARTCHAR afii10110
ENCODING 1118
SWIDTH 500 0
DWIDTH 8 0
BBX 7 11 0 -2
BITMAP
6C
38
00
C6
C6
C6
C6
7E
06
0C
78
ENDCHAR
STARTCHAR afii10193
ENCODING 1119
SWIDTH 500 0
DWIDTH 8 0
BBX 7 7 0 -1
BITMAP
EE
6C
6C
6C
6C
FE
10
ENDCHAR
STARTCHAR afii10050
ENCODING 1168
SWIDTH 500 0
DWIDTH 8 0
BBX 7 11 0 0
BITMAP
02
06
FE
60
60
60
60
60
60
60
F0
ENDCHAR
STARTCHAR afii10098
ENCODING 1169
SWIDTH 500 0
DWIDTH 8 0
BBX 7 8 0 0
BITMAP
02
06
FE
60
60
60
60
F0
ENDCHAR
STARTCHAR afii57645
ENCODING 1470
SWIDTH 500 0
DWIDTH 8 0
BBX 6 1 1 7
BITMAP
FC
ENDCHAR
STARTCHAR afii57664
ENCODING 1488
SWIDTH 500 0
DWIDTH 8 0
BBX 7 8 0 0
BITMAP
C6
C6
66
76
DC
CC
C6
C6
ENDCHAR
STARTCHAR afii57665
ENCODING 1489
SWIDTH 500 0
DWIDTH 8 0
BBX 7 8 0 0
BITMAP
F8
0C
0C
0C
0C
0C
0C
FE
ENDCHAR
STARTCHAR afii57666
ENCODING 1490
SWIDTH 500 0
DWIDTH 8 0
BBX 7 8 0 0
BITMAP
38
0C
0C
0C
0C
3C
6C
C6
ENDCHAR
STARTCHAR afii57667
ENCODING 1491
SWIDTH 500 0
DWIDTH 8 0
BBX 7 8 0 0
BITMAP
FE
0C
0C
0C
0C
0C
0C
0C
ENDCHAR
STARTCHAR afii57668
ENCODING 1492
SWIDTH 500 0
DWIDTH 8 0
BBX 7 8 0 0
BITMAP
FC
06
06
06
C6
C6
C6
C6
ENDCHAR
STARTCHAR afii57669
ENCODING 1493
SWIDTH 500 0
DWIDTH 8 0
BBX 4 8 1 0
BITMAP
E0
30
30
30
30
30
30
30
ENDCHAR
STARTCHAR afii57670
ENCODING 1494
SWIDTH 500 0
DWIDTH 8 0
BBX 6 8 0 0
BITMAP
FC
30
30
30
18
18
30
60
ENDCHAR
STARTCHAR afii57671
ENCODING 1495
SWIDTH 500 0
DWIDTH 8 0
BBX 7 8 0 0
BITMAP
FC
66
C6
C6
C6
C6
C6
C6
ENDCHAR
STARTCHAR afii57672
ENCODING 1496
SWIDTH 500 0
DWIDTH 8 0
BBX 7 8 0 0
BITMAP
CC
D6
D6
C6
C6
C6
CC
78
ENDCHAR
STARTCHAR afii57673
ENCODING 1497
SWIDTH 500 0
DWIDTH 8 0
BBX 5 5 1 3
BITMAP
F0
18
18
18
30
ENDCHAR
STARTCHAR afii57674
ENCODING 1498
SWIDTH 500 0
DWIDTH 8 0
BBX 7 10 0 -2
BITMAP
FC
06
06
0C
0C
0C
0C
0C
0C
0E
ENDCHAR
STARTCHAR afii57675
ENCODING 1499
SWIDTH 500 0
DWIDTH 8 0
BBX 7 8 0 0
BITMAP
FC
06
06
06
06
06
0C
F8
ENDCHAR
STARTCHAR afii57676
ENCODING 1500
SWIDTH 500 0
DWIDTH 8 0
BBX 7 10 0 0
BITMAP
C0
C0
FC
06
06
06
0C
18
30
30
ENDCHAR
STARTCHAR afii57677
ENCODING 1501
SWIDTH 500 0
DWIDTH 8 0
BBX 7 8 0 0
BITMAP
FC
C6
C6
C6
C6
C6
C6
FE
ENDCHAR
STARTCHAR afii57678
ENCODING 1502
SWIDTH 500 0
DWIDTH 8 0
BBX 7 8 0 0
BITMAP
DC
F6
66
C6
C6
C6
C6
DE
ENDCHAR
STARTCHAR afii57679
ENCODING 1503
SWIDTH 500 0
DWIDTH 8 0
BBX 4 10 2 -2
BITMAP
E0
30
30
60
60
60
60
60
60
70
ENDCHAR
STARTCHAR afii57680
ENCODING 1504
SWIDTH 500 0
DWIDTH 8 0
BBX 5 8 1 0
BITMAP
70
18
18
18
18
18
18
F8
ENDCHAR
STARTCHAR afii57681
ENCODING 1505
SWIDTH 500 0
DWIDTH 8 0
BBX 7 8 0 0
BITMAP
FC
66
C6
C6
C6
C6
CC
78
ENDCHAR
STARTCHAR afii57682
ENCODING 1506
SWIDTH 500 0
DWIDTH 8 0
BBX 7 8 0 0
BITMAP
66
66
66
66
66
36
1C
F8
ENDCHAR
STARTCHAR afii57683
ENCODING 1507
SWIDTH 500 0
DWIDTH 8 0
BBX 7 10 0 -2
BITMAP
F8
4C
CC
EC
0C
0C
0C
0C
0C
0E
ENDCHAR
STARTCHAR afii57684
ENCODING 1508
SWIDTH 500 0
DWIDTH 8 0
BBX 7 8 0 0
BITMAP
FC
46
C6
E6
06
06
06
FE
ENDCHAR
STARTCHAR afii57685
ENCODING 1509
SWIDTH 500 0
DWIDTH 8 0
BBX 6 10 0 -2
BITMAP
CC
CC
CC
CC
D8
F0
C0
C0
C0
E0
ENDCHAR
STARTCHAR afii57686
ENCODING 1510
SWIDTH 500 0
DWIDTH 8 0
BBX 7 8 0 0
BITMAP
C6
C6
66
3C
18
0C
06
FE
ENDCHAR
STARTCHAR afii57687
ENCODING 1511
SWIDTH 500 0
DWIDTH 8 0
BBX 7 10 0 -2
BITMAP
FC
06
06
66
6C
6C
6E
60
60
60
ENDCHAR
STARTCHAR afii57688
ENCODING 1512
SWIDTH 500 0
DWIDTH 8 0
BBX 7 8 0 0
BITMAP
FC
06
06
06
06
06
06
06
ENDCHAR
STARTCHAR afii57689
ENCODING 1513
SWIDTH 500 0
DWIDTH 8 0
BBX 7 8 0 0
BITMAP
D6
D6
D6
D6
D6
F6
C6
7C
ENDCHAR
STARTCHAR afii57690
ENCODING 1514
SWIDTH 500 0
DWIDTH 8 0
BBX 7 8 0 0
BITMAP
FC
66
66
66
66
66
66
E6
ENDCHAR
STARTCHAR afii57716
ENCODING 1520
SWIDTH 500 0
DWIDTH 8 0
BBX 7 8 0 0
BITMAP
CC
66
66
66
66
66
66
66
ENDCHAR
STARTCHAR afii57717
ENCODING 1521
SWIDTH 500 0
DWIDTH 8 0
BBX 7 8 0 0
BITMAP
CC
66
66
66
66
06
06
06
ENDCHAR
STARTCHAR afii57718
ENCODING 1522
SWIDTH 500 0
DWIDTH 8 0
BBX 7 5 0 3
BITMAP
CC
66
66
66
66
ENDCHAR
STARTCHAR uni05F3
ENCODING 1523
SWIDTH 500 0
DWIDTH 8 0
BBX 3 3 2 6
BITMAP
60
60
C0
ENDCHAR
STARTCHAR uni05F4
ENCODING 1524
SWIDTH 500 0
DWIDTH 8 0
BBX 7 3 0 6
BITMAP
66
66
CC
ENDCHAR
STARTCHAR uni1D1B
ENCODING 7451
SWIDTH 500 0
DWIDTH 8 0
BBX 7 7 0 0
BITMAP
76
DC
18
18
18
18
18
ENDCHAR
STARTCHAR uni1D26
ENCODING 7462
SWIDTH 500 0
DWIDTH 8 0
BBX 7 9 0 0
BITMAP
FE
C6
C6
C0
C0
C0
C0
C0
C0
ENDCHAR
STARTCHAR uni1D28
ENCODING 7464
SWIDTH 500 0
DWIDTH 8 0
BBX 7 7 0 0
BITMAP
FE
6C
6C
6C
6C
6C
6C
ENDCHAR
STARTCHAR Wgrave
ENCODING 7808
SWIDTH 500 0
DWIDTH 8 0
BBX 7 11 0 0
BITMAP
60
30
00
C6
C6
C6
D6
D6
FE
7C
6C
ENDCHAR
STARTCHAR wgrave
ENCODING 7809
SWIDTH 500 0
DWIDTH 8 0
BBX 7 10 0 0
BITMAP
60
30
18
00
C6
C6
D6
D6
FE
6C
ENDCHAR
STARTCHAR Wacute
ENCODING 7810
SWIDTH 500 0
DWIDTH 8 0
BBX 7 11 0 0
BITMAP
0C
18
00
C6
C6
C6
D6
D6
FE
7C
6C
ENDCHAR
STARTCHAR wacute
ENCODING 7811
SWIDTH 500 0
DWIDTH 8 0
BBX 7 10 0 0
BITMAP
0C
18
30
00
C6
C6
D6
D6
FE
6C
ENDCHAR
STARTCHAR Wdieresis
ENCODING 7812
SWIDTH 500 0
DWIDTH 8 0
BBX 7 11 0 0
BITMAP
C6
C6
00
C6
C6
C6
D6
D6
FE
7C
6C
ENDCHAR
STARTCHAR wdieresis
ENCODING 7813
SWIDTH 500 0
DWIDTH 8 0
BBX 7 9 0 0
BITMAP
C6
C6
00
C6
C6
D6
D6
FE
6C
ENDCHAR
STARTCHAR uni1E9F
ENCODING 7839
SWIDTH 500 0
DWIDTH 8 0
BBX 6 9 1 0
BITMAP
3C
60
30
18
7C
CC
CC
CC
78
ENDCHAR
STARTCHAR Ygrave
ENCODING 7922
SWIDTH 500 0
DWIDTH 8 0
BBX 6 11 1 0
BITMAP
60
30
00
CC
CC
CC
78
30
30
30
78
ENDCHAR
STARTCHAR ygrave
ENCODING 7923
SWIDTH 500 0
DWIDTH 8 0
BBX 7 12 0 -2
BITMAP
60
30
18
00
C6
C6
C6
C6
7E
06
0C
F8
ENDCHAR
STARTCHAR uni2010
ENCODING 8208
SWIDTH 500 0
DWIDTH 8 0
BBX 6 1 1 4
BITMAP
FC
ENDCHAR
STARTCHAR figuredash
ENCODING 8210
SWIDTH 500 0
DWIDTH 8 0
BBX 5 1 1 4
BITMAP
F8
ENDCHAR
STARTCHAR endash
ENCODING 8211
SWIDTH 500 0
DWIDTH 8 0
BBX 5 1 1 4
BITMAP
F8
ENDCHAR
STARTCHAR emdash
ENCODING 8212
SWIDTH 500 0
DWIDTH 8 0
BBX 8 1 0 4
BITMAP
FF
ENDCHAR
STARTCHAR afii00208
ENCODING 8213
SWIDTH 500 0
DWIDTH 8 0
BBX 8 1 0 4
BITMAP
FF
ENDCHAR
STARTCHAR underscoredbl
ENCODING 8215
SWIDTH 500 0
DWIDTH 8 0
BBX 8 3 0 -2
BITMAP
FF
00
FF
ENDCHAR
STARTCHAR quoteleft
ENCODING 8216
SWIDTH 500 0
DWIDTH 8 0
BBX 3 3 2 7
BITMAP
60
C0
C0
ENDCHAR
STARTCHAR quoteright
ENCODING 8217
SWIDTH 500 0
DWIDTH 8 0
BBX 3 3 2 7
BITMAP
60
60
C0
ENDCHAR
STARTCHAR quotesinglbase
ENCODING 8218
SWIDTH 500 0
DWIDTH 8 0
BBX 3 3 2 -2
BITMAP
60
60
C0
ENDCHAR
STARTCHAR quotereversed
ENCODING 8219
SWIDTH 500 0
DWIDTH 8 0
BBX 3 3 2 7
BITMAP
C0
C0
60
ENDCHAR
STARTCHAR quotedblleft
ENCODING 8220
SWIDTH 500 0
DWIDTH 8 0
BBX 7 3 0 7
BITMAP
66
CC
CC
ENDCHAR
STARTCHAR quotedblright
ENCODING 8221
SWIDTH 500 0
DWIDTH 8 0
BBX 7 3 0 7
BITMAP
66
66
CC
ENDCHAR
STARTCHAR quotedblbase
ENCODING 8222
SWIDTH 500 0
DWIDTH 8 0
BBX 7 3 0 -2
BITMAP
66
66
CC
ENDCHAR
STARTCHAR uni201F
ENCODING 8223
SWIDTH 500 0
DWIDTH 8 0
BBX 7 3 0 7
BITMAP
CC
CC
66
ENDCHAR
STARTCHAR dagger
ENCODING 8224
SWIDTH 500 0
DWIDTH 8 0
BBX 6 11 1 -1
BITMAP
30
30
30
FC
30
30
30
30
30
30
30
ENDCHAR
STARTCHAR daggerdbl
ENCODING 8225
SWIDTH 500 0
DWIDTH 8 0
BBX 6 11 1 -1
BITMAP
30
30
30
FC
30
30
30
FC
30
30
30
ENDCHAR
STARTCHAR bullet
ENCODING 8226
SWIDTH 500 0
DWIDTH 8 0
BBX 4 4 2 2
BITMAP
60
F0
F0
60
ENDCHAR
STARTCHAR ellipsis
ENCODING 8230
SWIDTH 500 0
DWIDTH 8 0
BBX 8 2 0 0
BITMAP
DB
DB
ENDCHAR
STARTCHAR uni2027
ENCODING 8231
SWIDTH 500 0
DWIDTH 8 0
BBX 2 2 3 3
BITMAP
C0
C0
ENDCHAR
STARTCHAR perthousand
ENCODING 8240
SWIDTH 500 0
DWIDTH 8 0
BBX 8 7 0 0
BITMAP
C6
CC
18
30
60
DB
1B
ENDCHAR
STARTCHAR minute
ENCODING 8242
SWIDTH 500 0
DWIDTH 8 0
BBX 4 3 2 7
BITMAP
30
60
C0
ENDCHAR
STARTCHAR second
ENCODING 8243
SWIDTH 500 0
DWIDTH 8 0
BBX 7 3 0 7
BITMAP
36
6C
D8
ENDCHAR
STARTCHAR uni2035
ENCODING 8245
SWIDTH 500 0
DWIDTH 8 0
BBX 4 3 2 7
BITMAP
C0
60
30
ENDCHAR
STARTCHAR guilsinglleft
ENCODING 8249
SWIDTH 500 0
DWIDTH 8 0
BBX 4 5 2 2
BITMAP
30
60
C0
60
30
ENDCHAR
STARTCHAR guilsinglright
ENCODING 8250
SWIDTH 500 0
DWIDTH 8 0
BBX 4 5 2 2
BITMAP
C0
60
30
60
C0
ENDCHAR
STARTCHAR exclamdbl
ENCODING 8252
SWIDTH 500 0
DWIDTH 8 0
BBX 6 9 1 0
BITMAP
CC
CC
CC
CC
CC
CC
00
CC
CC
ENDCHAR
STARTCHAR uni203E
ENCODING 8254
SWIDTH 500 0
DWIDTH 8 0
BBX 6 1 1 9
BITMAP
FC
ENDCHAR
STARTCHAR uni203F
ENCODING 8255
SWIDTH 500 0
DWIDTH 8 0
BBX 7 2 0 -2
BITMAP
C6
7C
ENDCHAR
STARTCHAR uni2040
ENCODING 8256
SWIDTH 500 0
DWIDTH 8 0
BBX 7 2 0 8
BITMAP
7C
C6
ENDCHAR
STARTCHAR fraction
ENCODING 8260
SWIDTH 500 0
DWIDTH 8 0
BBX 7 8 0 1
BITMAP
02
06
0C
18
30
60
C0
80
ENDCHAR
STARTCHAR uni2054
ENCODING 8276
SWIDTH 500 0
DWIDTH 8 0
BBX 7 2 0 -2
BITMAP
7C
C6
ENDCHAR
STARTCHAR uni2074
ENCODING 8308
SWIDTH 500 0
DWIDTH 8 0
BBX 5 6 0 4
BITMAP
18
38
58
F8
18
18
ENDCHAR
STARTCHAR uni2075
ENCODING 8309
SWIDTH 500 0
DWIDTH 8 0
BBX 5 6 0 4
BITMAP
F8
C0
F0
18
18
F0
ENDCHAR
STARTCHAR uni2076
ENCODING 8310
SWIDTH 500 0
DWIDTH 8 0
BBX 5 6 0 4
BITMAP
70
C0
F0
D8
D8
70
ENDCHAR
STARTCHAR uni2077
ENCODING 8311
SWIDTH 500 0
DWIDTH 8 0
BBX 5 6 0 4
BITMAP
F8
98
30
60
60
60
ENDCHAR
STARTCHAR uni2078
ENCODING 8312
SWIDTH 500 0
DWIDTH 8 0
BBX 5 6 0 4
BITMAP
70
D8
70
D8
D8
70
ENDCHAR
STARTCHAR uni2079
ENCODING 8313
SWIDTH 500 0
DWIDTH 8 0
BBX 5 6 0 4
BITMAP
70
D8
D8
78
18
70
ENDCHAR
STARTCHAR uni207A
ENCODING 8314
SWIDTH 500 0
DWIDTH 8 0
BBX 6 5 0 5
BITMAP
30
30
FC
30
30
ENDCHAR
STARTCHAR uni207B
ENCODING 8315
SWIDTH 500 0
DWIDTH 8 0
BBX 5 1 1 7
BITMAP
F8
ENDCHAR
STARTCHAR uni207F
ENCODING 8319
SWIDTH 500 0
DWIDTH 8 0
BBX 6 6 0 4
BITMAP
D8
6C
6C
6C
6C
6C
ENDCHAR
STARTCHAR uni2081
ENCODING 8321
SWIDTH 500 0
DWIDTH 8 0
BBX 4 6 1 -2
BITMAP
60
E0
60
60
60
F0
ENDCHAR
STARTCHAR uni2082
ENCODING 8322
SWIDTH 500 0
DWIDTH 8 0
BBX 5 6 0 -2
BITMAP
70
D8
30
60
C8
F8
ENDCHAR
STARTCHAR uni2083
ENCODING 8323
SWIDTH 500 0
DWIDTH 8 0
BBX 5 6 0 -2
BITMAP
F0
18
70
18
18
F0
ENDCHAR
STARTCHAR uni2084
ENCODING 8324
SWIDTH 500 0
DWIDTH 8 0
BBX 5 6 0 -2
BITMAP
18
38
58
F8
18
18
ENDCHAR
STARTCHAR uni2085
ENCODING 8325
SWIDTH 500 0
DWIDTH 8 0
BBX 5 6 0 -2
BITMAP
F8
C0
F0
18
18
F0
ENDCHAR
STARTCHAR uni2086
ENCODING 8326
SWIDTH 500 0
DWIDTH 8 0
BBX 5 6 0 -2
BITMAP
70
C0
F0
D8
D8
70
ENDCHAR
STARTCHAR uni2087
ENCODING 8327
SWIDTH 500 0
DWIDTH 8 0
BBX 5 6 0 -2
BITMAP
F8
98
30
60
60
60
ENDCHAR
STARTCHAR uni2088
ENCODING 8328
SWIDTH 500 0
DWIDTH 8 0
BBX 5 6 0 -2
BITMAP
70
D8
70
D8
D8
70
ENDCHAR
STARTCHAR uni2089
ENCODING 8329
SWIDTH 500 0
DWIDTH 8 0
BBX 5 6 0 -2
BITMAP
70
D8
D8
78
18
70
ENDCHAR
STARTCHAR uni208A
ENCODING 8330
SWIDTH 500 0
DWIDTH 8 0
BBX 6 5 0 -2
BITMAP
30
30
FC
30
30
ENDCHAR
STARTCHAR uni208B
ENCODING 8331
SWIDTH 500 0
DWIDTH 8 0
BBX 5 1 1 0
BITMAP
F8
ENDCHAR
STARTCHAR franc
ENCODING 8355
SWIDTH 500 0
DWIDTH 8 0
BBX 7 10 0 -1
BITMAP
FE
66
62
68
78
68
60
F0
60
60
ENDCHAR
STARTCHAR lira
ENCODING 8356
SWIDTH 500 0
DWIDTH 8 0
BBX 7 10 0 0
BITMAP
38
6C
64
60
F0
60
F0
60
E6
FC
ENDCHAR
STARTCHAR peseta
ENCODING 8359
SWIDTH 500 0
DWIDTH 8 0
BBX 7 10 0 0
BITMAP
F8
CC
CC
F8
C4
CC
DE
CC
CC
C6
ENDCHAR
STARTCHAR afii57636
ENCODING 8362
SWIDTH 500 0
DWIDTH 8 0
BBX 7 7 0 1
BITMAP
FA
8A
AA
AA
AA
A2
BE
ENDCHAR
STARTCHAR Euro
ENCODING 8364
SWIDTH 500 0
DWIDTH 8 0
BBX 7 9 0 0
BITMAP
1C
36
60
FC
60
F8
60
36
1C
ENDCHAR
STARTCHAR afii61248
ENCODING 8453
SWIDTH 500 0
DWIDTH 8 0
BBX 7 13 0 -2
BITMAP
60
D0
C0
D6
6C
18
30
60
DC
B6
36
36
1C
ENDCHAR
STARTCHAR afii61289
ENCODING 8467
SWIDTH 500 0
DWIDTH 8 0
BBX 6 9 1 0
BITMAP
20
70
D8
D8
D8
70
60
B4
18
ENDCHAR
STARTCHAR afii61352
ENCODING 8470
SWIDTH 500 0
DWIDTH 8 0
BBX 8 9 0 0
BITMAP
CF
CD
ED
FF
DC
CF
CC
CC
CC
ENDCHAR
STARTCHAR trademark
ENCODING 8482
SWIDTH 500 0
DWIDTH 8 0
BBX 8 5 0 5
BITMAP
F1
5B
55
51
51
ENDCHAR
STARTCHAR Omega
ENCODING 8486
SWIDTH 500 0
DWIDTH 8 0
BBX 7 9 0 0
BITMAP
38
6C
C6
C6
C6
6C
6C
6C
EE
ENDCHAR
STARTCHAR estimated
ENCODING 8494
SWIDTH 500 0
DWIDTH 8 0
BBX 7 6 0 0
BITMAP
7C
C6
FE
C0
C6
7C
ENDCHAR
STARTCHAR uni2150
ENCODING 8528
SWIDTH 500 0
DWIDTH 8 0
BBX 7 12 0 -2
BITMAP
C0
C0
C6
CC
D8
30
60
DE
86
0C
18
18
ENDCHAR
STARTCHAR uni2151
ENCODING 8529
SWIDTH 500 0
DWIDTH 8 0
BBX 7 12 0 -2
BITMAP
C0
C0
C6
CC
D8
30
60
DC
B6
1E
06
1C
ENDCHAR
STARTCHAR onethird
ENCODING 8531
SWIDTH 500 0
DWIDTH 8 0
BBX 7 12 0 -2
BITMAP
C0
C0
C6
CC
D8
30
60
DC
86
1C
06
1C
ENDCHAR
STARTCHAR twothirds
ENCODING 8532
SWIDTH 500 0
DWIDTH 8 0
BBX 8 12 0 -2
BITMAP
E0
30
62
C6
FC
18
30
6E
C3
0E
03
0E
ENDCHAR
STARTCHAR uni2155
ENCODING 8533
SWIDTH 500 0
DWIDTH 8 0
BBX 7 12 0 -2
BITMAP
C0
C0
C6
CC
D8
30
60
DE
98
1C
06
1C
ENDCHAR
STARTCHAR uni2156
ENCODING 8534
SWIDTH 500 0
DWIDTH 8 0
BBX 8 12 0 -2
BITMAP
E0
30
62
C6
FC
18
30
6F
CC
0E
03
0E
ENDCHAR
STARTCHAR uni2157
ENCODING 8535
SWIDTH 500 0
DWIDTH 8 0
BBX 8 12 0 -2
BITMAP
E0
30
E2
36
EC
18
30
6F
CC
0E
03
0E
ENDCHAR
STARTCHAR uni2158
ENCODING 8536
SWIDTH 500 0
DWIDTH 8 0
BBX 8 12 0 -2
BITMAP
30
70
F2
F6
3C
18
30
6F
CC
0E
03
0E
ENDCHAR
STARTCHAR uni2159
ENCODING 8537
SWIDTH 500 0
DWIDTH 8 0
BBX 7 12 0 -2
BITMAP
C0
C0
C6
CC
D8
30
60
DC
B0
3C
36
1C
ENDCHAR
STARTCHAR uni215A
ENCODING 8538
SWIDTH 500 0
DWIDTH 8 0
BBX 8 12 0 -2
BITMAP
F0
C0
E2
36
EC
18
30
6E
D8
1E
1B
0E
ENDCHAR
STARTCHAR oneeighth
ENCODING 8539
SWIDTH 500 0
DWIDTH 8 0
BBX 7 12 0 -2
BITMAP
C0
C0
C6
CC
D8
30
60
DC
B6
1C
36
1C
ENDCHAR
STARTCHAR threeeighths
ENCODING 8540
SWIDTH 500 0
DWIDTH 8 0
BBX 8 12 0 -2
BITMAP
E0
30
E2
36
EC
18
30
6E
DB
0E
1B
0E
ENDCHAR
STARTCHAR fiveeighths
ENCODING 8541
SWIDTH 500 0
DWIDTH 8 0
BBX 8 12 0 -2
BITMAP
F0
C0
E2
36
EC
18
30
6E
DB
0E
1B
0E
ENDCHAR
STARTCHAR seveneighths
ENCODING 8542
SWIDTH 500 0
DWIDTH 8 0
BBX 7 12 0 -2
BITMAP
F0
30
66
CC
D8
30
60
DC
B6
1C
36
1C
ENDCHAR
STARTCHAR arrowleft
ENCODING 8592
SWIDTH 500 0
DWIDTH 8 0
BBX 7 5 0 2
BITMAP
30
60
FE
60
30
ENDCHAR
STARTCHAR arrowup
ENCODING 8593
SWIDTH 500 0
DWIDTH 8 0
BBX 6 9 1 0
BITMAP
30
78
FC
30
30
30
30
30
30
ENDCHAR
STARTCHAR arrowright
ENCODING 8594
SWIDTH 500 0
DWIDTH 8 0
BBX 7 5 0 2
BITMAP
18
0C
FE
0C
18
ENDCHAR
STARTCHAR arrowdown
ENCODING 8595
SWIDTH 500 0
DWIDTH 8 0
BBX 6 9 1 0
BITMAP
30
30
30
30
30
30
FC
78
30
ENDCHAR
STARTCHAR arrowboth
ENCODING 8596
SWIDTH 500 0
DWIDTH 8 0
BBX 7 5 0 2
BITMAP
28
6C
FE
6C
28
ENDCHAR
STARTCHAR arrowupdn
ENCODING 8597
SWIDTH 500 0
DWIDTH 8 0
BBX 6 9 1 0
BITMAP
30
78
FC
30
30
30
FC
78
30
ENDCHAR
STARTCHAR arrowupdnbse
ENCODING 8616
SWIDTH 500 0
DWIDTH 8 0
BBX 6 10 1 -1
BITMAP
30
78
FC
30
30
30
FC
78
30
FC
ENDCHAR
STARTCHAR partialdiff
ENCODING 8706
SWIDTH 500 0
DWIDTH 8 0
BBX 7 9 0 0
BITMAP
38
6C
06
06
3E
66
C6
CC
78
ENDCHAR
STARTCHAR emptyset
ENCODING 8709
SWIDTH 500 0
DWIDTH 8 0
BBX 8 9 0 0
BITMAP
03
06
7E
DB
DB
F3
7E
60
C0
ENDCHAR
STARTCHAR Delta
ENCODING 8710
SWIDTH 500 0
DWIDTH 8 0
BBX 7 7 0 1
BITMAP
10
38
6C
C6
C6
C6
FE
ENDCHAR
STARTCHAR element
ENCODING 8712
SWIDTH 500 0
DWIDTH 8 0
BBX 5 9 1 0
BITMAP
38
60
C0
C0
F8
C0
C0
60
38
ENDCHAR
STARTCHAR product
ENCODING 8719
SWIDTH 500 0
DWIDTH 8 0
BBX 7 10 0 -1
BITMAP
FE
C6
C6
C6
C6
C6
C6
C6
C6
C6
ENDCHAR
STARTCHAR summation
ENCODING 8721
SWIDTH 500 0
DWIDTH 8 0
BBX 7 9 0 0
BITMAP
FE
C6
60
30
18
30
60
C6
FE
ENDCHAR
STARTCHAR minus
ENCODING 8722
SWIDTH 500 0
DWIDTH 8 0
BBX 7 1 0 4
BITMAP
FE
ENDCHAR
STARTCHAR uni2215
ENCODING 8725
SWIDTH 500 0
DWIDTH 8 0
BBX 7 8 0 1
BITMAP
02
06
0C
18
30
60
C0
80
ENDCHAR
STARTCHAR uni2219
ENCODING 8729
SWIDTH 500 0
DWIDTH 8 0
BBX 2 2 3 3
BITMAP
C0
C0
ENDCHAR
STARTCHAR radical
ENCODING 8730
SWIDTH 500 0
DWIDTH 8 0
BBX 8 10 0 0
BITMAP
0F
0C
0C
0C
0C
0C
EC
6C
3C
1C
ENDCHAR
STARTCHAR infinity
ENCODING 8734
SWIDTH 500 0
DWIDTH 8 0
BBX 8 4 0 2
BITMAP
7E
DB
DB
7E
ENDCHAR
STARTCHAR orthogonal
ENCODING 8735
SWIDTH 500 0
DWIDTH 8 0
BBX 7 4 0 2
BITMAP
C0
C0
C0
FE
ENDCHAR
STARTCHAR intersection
ENCODING 8745
SWIDTH 500 0
DWIDTH 8 0
BBX 7 8 0 0
BITMAP
7C
C6
C6
C6
C6
C6
C6
C6
ENDCHAR
STARTCHAR integral
ENCODING 8747
SWIDTH 500 0
DWIDTH 8 0
BBX 8 14 0 -3
BITMAP
0E
1B
1B
18
18
18
18
18
18
18
18
D8
D8
70
ENDCHAR
STARTCHAR approxequal
ENCODING 8776
SWIDTH 500 0
DWIDTH 8 0
BBX 7 5 0 2
BITMAP
76
DC
00
76
DC
ENDCHAR
STARTCHAR notequal
ENCODING 8800
SWIDTH 500 0
DWIDTH 8 0
BBX 7 8 0 0
BITMAP
06
0C
FE
18
30
FE
60
C0
ENDCHAR
STARTCHAR equivalence
ENCODING 8801
SWIDTH 500 0
DWIDTH 8 0
BBX 7 7 0 1
BITMAP
FE
00
00
FE
00
00
FE
ENDCHAR
STARTCHAR lessequal
ENCODING 8804
SWIDTH 500 0
DWIDTH 8 0
BBX 6 9 1 0
BITMAP
18
30
60
C0
60
30
18
00
FC
ENDCHAR
STARTCHAR greaterequal
ENCODING 8805
SWIDTH 500 0
DWIDTH 8 0
BBX 6 9 1 0
BITMAP
60
30
18
0C
18
30
60
00
FC
ENDCHAR
STARTCHAR uni2299
ENCODING 8857
SWIDTH 500 0
DWIDTH 8 0
BBX 7 9 0 0
BITMAP
7C
C6
C6
D6
D6
D6
C6
C6
7C
ENDCHAR
STARTCHAR uni2300
ENCODING 8960
SWIDTH 500 0
DWIDTH 8 0
BBX 7 9 0 0
BITMAP
38
6C
C6
CE
D6
E6
C6
6C
38
ENDCHAR
STARTCHAR house
ENCODING 8962
SWIDTH 500 0
DWIDTH 8 0
BBX 7 6 0 1
BITMAP
10
38
6C
C6
C6
FE
ENDCHAR
STARTCHAR revlogicalnot
ENCODING 8976
SWIDTH 500 0
DWIDTH 8 0
BBX 7 4 0 1
BITMAP
FE
C0
C0
C0
ENDCHAR
STARTCHAR integraltp
ENCODING 8992
SWIDTH 500 0
DWIDTH 8 0
BBX 5 12 3 -3
BITMAP
70
D8
D8
C0
C0
C0
C0
C0
C0
C0
C0
C0
ENDCHAR
STARTCHAR integralbt
ENCODING 8993
SWIDTH 500 0
DWIDTH 8 0
BBX 5 11 0 0
BITMAP
18
18
18
18
18
18
18
18
D8
D8
70
ENDCHAR
STARTCHAR SF100000
ENCODING 9472
SWIDTH 500 0
DWIDTH 8 0
BBX 8 1 0 3
BITMAP
FF
ENDCHAR
STARTCHAR SF110000
ENCODING 9474
SWIDTH 500 0
DWIDTH 8 0
BBX 2 14 3 -3
BITMAP
C0
C0
C0
C0
C0
C0
C0
C0
C0
C0
C0
C0
C0
C0
ENDCHAR
STARTCHAR SF010000
ENCODING 9484
SWIDTH 500 0
DWIDTH 8 0
BBX 5 7 3 -3
BITMAP
F8
C0
C0
C0
C0
C0
C0
ENDCHAR
STARTCHAR SF030000
ENCODING 9488
SWIDTH 500 0
DWIDTH 8 0
BBX 5 7 0 -3
BITMAP
F8
18
18
18
18
18
18
ENDCHAR
STARTCHAR SF020000
ENCODING 9492
SWIDTH 500 0
DWIDTH 8 0
BBX 5 8 3 3
BITMAP
C0
C0
C0
C0
C0
C0
C0
F8
ENDCHAR
STARTCHAR SF040000
ENCODING 9496
SWIDTH 500 0
DWIDTH 8 0
BBX 5 8 0 3
BITMAP
18
18
18
18
18
18
18
F8
ENDCHAR
STARTCHAR SF080000
ENCODING 9500
SWIDTH 500 0
DWIDTH 8 0
BBX 5 14 3 -3
BITMAP
C0
C0
C0
C0
C0
C0
C0
F8
C0
C0
C0
C0
C0
C0
ENDCHAR
STARTCHAR SF090000
ENCODING 9508
SWIDTH 500 0
DWIDTH 8 0
BBX 5 14 0 -3
BITMAP
18
18
18
18
18
18
18
F8
18
18
18
18
18
18
ENDCHAR
STARTCHAR SF060000
ENCODING 9516
SWIDTH 500 0
DWIDTH 8 0
BBX 8 7 0 -3
BITMAP
FF
18
18
18
18
18
18
ENDCHAR
STARTCHAR SF070000
ENCODING 9524
SWIDTH 500 0
DWIDTH 8 0
BBX 8 8 0 3
BITMAP
18
18
18
18
18
18
18
FF
ENDCHAR
STARTCHAR SF050000
ENCODING 9532
SWIDTH 500 0
DWIDTH 8 0
BBX 8 14 0 -3
BITMAP
18
18
18
18
18
18
18
FF
18
18
18
18
18
18
ENDCHAR
STARTCHAR SF430000
ENCODING 9552
SWIDTH 500 0
DWIDTH 8 0
BBX 8 3 0 3
BITMAP
FF
00
FF
ENDCHAR
STARTCHAR SF240000
ENCODING 9553
SWIDTH 500 0
DWIDTH 8 0
BBX 5 14 2 -3
BITMAP
D8
D8
D8
D8
D8
D8
D8
D8
D8
D8
D8
D8
D8
D8
ENDCHAR
STARTCHAR SF510000
ENCODING 9554
SWIDTH 500 0
DWIDTH 8 0
BBX 5 9 3 -3
BITMAP
F8
C0
F8
C0
C0
C0
C0
C0
C0
ENDCHAR
STARTCHAR SF520000
ENCODING 9555
SWIDTH 500 0
DWIDTH 8 0
BBX 6 7 2 -3
BITMAP
FC
D8
D8
D8
D8
D8
D8
ENDCHAR
STARTCHAR SF390000
ENCODING 9556
SWIDTH 500 0
DWIDTH 8 0
BBX 6 9 2 -3
BITMAP
FC
C0
DC
D8
D8
D8
D8
D8
D8
ENDCHAR
STARTCHAR SF220000
ENCODING 9557
SWIDTH 500 0
DWIDTH 8 0
BBX 5 9 0 -3
BITMAP
F8
18
F8
18
18
18
18
18
18
ENDCHAR
STARTCHAR SF210000
ENCODING 9558
SWIDTH 500 0
DWIDTH 8 0
BBX 7 7 0 -3
BITMAP
FE
36
36
36
36
36
36
ENDCHAR
STARTCHAR SF250000
ENCODING 9559
SWIDTH 500 0
DWIDTH 8 0
BBX 7 9 0 -3
BITMAP
FE
06
F6
36
36
36
36
36
36
ENDCHAR
STARTCHAR SF500000
ENCODING 9560
SWIDTH 500 0
DWIDTH 8 0
BBX 5 8 3 3
BITMAP
C0
C0
C0
C0
C0
F8
C0
F8
ENDCHAR
STARTCHAR SF490000
ENCODING 9561
SWIDTH 500 0
DWIDTH 8 0
BBX 6 8 2 3
BITMAP
D8
D8
D8
D8
D8
D8
D8
FC
ENDCHAR
STARTCHAR SF380000
ENCODING 9562
SWIDTH 500 0
DWIDTH 8 0
BBX 6 8 2 3
BITMAP
D8
D8
D8
D8
D8
DC
C0
FC
ENDCHAR
STARTCHAR SF280000
ENCODING 9563
SWIDTH 500 0
DWIDTH 8 0
BBX 5 8 0 3
BITMAP
18
18
18
18
18
F8
18
F8
ENDCHAR
STARTCHAR SF270000
ENCODING 9564
SWIDTH 500 0
DWIDTH 8 0
BBX 7 8 0 3
BITMAP
36
36
36
36
36
36
36
FE
ENDCHAR
STARTCHAR SF260000
ENCODING 9565
SWIDTH 500 0
DWIDTH 8 0
BBX 7 8 0 3
BITMAP
36
36
36
36
36
F6
06
FE
ENDCHAR
STARTCHAR SF360000
ENCODING 9566
SWIDTH 500 0
DWIDTH 8 0
BBX 5 14 3 -3
BITMAP
C0
C0
C0
C0
C0
F8
C0
F8
C0
C0
C0
C0
C0
C0
ENDCHAR
STARTCHAR SF370000
ENCODING 9567
SWIDTH 500 0
DWIDTH 8 0
BBX 6 14 2 -3
BITMAP
D8
D8
D8
D8
D8
D8
D8
DC
D8
D8
D8
D8
D8
D8
ENDCHAR
STARTCHAR SF420000
ENCODING 9568
SWIDTH 500 0
DWIDTH 8 0
BBX 6 14 2 -3
BITMAP
D8
D8
D8
D8
D8
DC
C0
DC
D8
D8
D8
D8
D8
D8
ENDCHAR
STARTCHAR SF190000
ENCODING 9569
SWIDTH 500 0
DWIDTH 8 0
BBX 5 14 0 -3
BITMAP
18
18
18
18
18
F8
18
F8
18
18
18
18
18
18
ENDCHAR
STARTCHAR SF200000
ENCODING 9570
SWIDTH 500 0
DWIDTH 8 0
BBX 7 14 0 -3
BITMAP
36
36
36
36
36
36
36
F6
36
36
36
36
36
36
ENDCHAR
STARTCHAR SF230000
ENCODING 9571
SWIDTH 500 0
DWIDTH 8 0
BBX 7 14 0 -3
BITMAP
36
36
36
36
36
F6
06
F6
36
36
36
36
36
36
ENDCHAR
STARTCHAR SF470000
ENCODING 9572
SWIDTH 500 0
DWIDTH 8 0
BBX 8 9 0 -3
BITMAP
FF
00
FF
18
18
18
18
18
18
ENDCHAR
STARTCHAR SF480000
ENCODING 9573
SWIDTH 500 0
DWIDTH 8 0
BBX 8 7 0 -3
BITMAP
FF
36
36
36
36
36
36
ENDCHAR
STARTCHAR SF410000
ENCODING 9574
SWIDTH 500 0
DWIDTH 8 0
BBX 8 9 0 -3
BITMAP
FF
00
F7
36
36
36
36
36
36
ENDCHAR
STARTCHAR SF450000
ENCODING 9575
SWIDTH 500 0
DWIDTH 8 0
BBX 8 8 0 3
BITMAP
18
18
18
18
18
FF
00
FF
ENDCHAR
STARTCHAR SF460000
ENCODING 9576
SWIDTH 500 0
DWIDTH 8 0
BBX 8 8 0 3
BITMAP
36
36
36
36
36
36
36
FF
ENDCHAR
STARTCHAR SF400000
ENCODING 9577
SWIDTH 500 0
DWIDTH 8 0
BBX 8 8 0 3
BITMAP
36
36
36
36
36
F7
00
FF
ENDCHAR
STARTCHAR SF540000
ENCODING 9578
SWIDTH 500 0
DWIDTH 8 0
BBX 8 14 0 -3
BITMAP
18
18
18
18
18
FF
18
FF
18
18
18
18
18
18
ENDCHAR
STARTCHAR SF530000
ENCODING 9579
SWIDTH 500 0
DWIDTH 8 0
BBX 8 14 0 -3
BITMAP
36
36
36
36
36
36
36
FF
36
36
36
36
36
36
ENDCHAR
STARTCHAR SF440000
ENCODING 9580
SWIDTH 500 0
DWIDTH 8 0
BBX 8 14 0 -3
BITMAP
36
36
36
36
36
F7
00
F7
36
36
36
36
36
36
ENDCHAR
STARTCHAR upblock
ENCODING 9600
SWIDTH 500 0
DWIDTH 8 0
BBX 8 7 0 4
BITMAP
FF
FF
FF
FF
FF
FF
FF
ENDCHAR
STARTCHAR uni2581
ENCODING 9601
SWIDTH 500 0
DWIDTH 8 0
BBX 8 2 0 -2
BITMAP
FF
FF
ENDCHAR
STARTCHAR dnblock
ENCODING 9604
SWIDTH 500 0
DWIDTH 8 0
BBX 8 7 0 -3
BITMAP
FF
FF
FF
FF
FF
FF
FF
ENDCHAR
STARTCHAR block
ENCODING 9608
SWIDTH 500 0
DWIDTH 8 0
BBX 8 14 0 -3
BITMAP
FF
FF
FF
FF
FF
FF
FF
FF
FF
FF
FF
FF
FF
FF
ENDCHAR
STARTCHAR lfblock
ENCODING 9612
SWIDTH 500 0
DWIDTH 8 0
BBX 4 14 0 -3
BITMAP
F0
F0
F0
F0
F0
F0
F0
F0
F0
F0
F0
F0
F0
F0
ENDCHAR
STARTCHAR rtblock
ENCODING 9616
SWIDTH 500 0
DWIDTH 8 0
BBX 4 14 4 -3
BITMAP
F0
F0
F0
F0
F0
F0
F0
F0
F0
F0
F0
F0
F0
F0
ENDCHAR
STARTCHAR ltshade
ENCODING 9617
SWIDTH 500 0
DWIDTH 8 0
BBX 7 14 1 -3
BITMAP
22
88
22
88
22
88
22
88
22
88
22
88
22
88
ENDCHAR
STARTCHAR shade
ENCODING 9618
SWIDTH 500 0
DWIDTH 8 0
BBX 8 14 0 -3
BITMAP
55
AA
55
AA
55
AA
55
AA
55
AA
55
AA
55
AA
ENDCHAR
STARTCHAR dkshade
ENCODING 9619
SWIDTH 500 0
DWIDTH 8 0
BBX 8 14 0 -3
BITMAP
DD
77
DD
77
DD
77
DD
77
DD
77
DD
77
DD
77
ENDCHAR
STARTCHAR filledbox
ENCODING 9632
SWIDTH 500 0
DWIDTH 8 0
BBX 5 6 1 1
BITMAP
F8
F8
F8
F8
F8
F8
ENDCHAR
STARTCHAR H22073
ENCODING 9633
SWIDTH 500 0
DWIDTH 8 0
BBX 6 6 1 1
BITMAP
FC
CC
CC
CC
CC
FC
ENDCHAR
STARTCHAR H18543
ENCODING 9642
SWIDTH 500 0
DWIDTH 8 0
BBX 5 4 1 2
BITMAP
F8
F8
F8
F8
ENDCHAR
STARTCHAR H18551
ENCODING 9643
SWIDTH 500 0
DWIDTH 8 0
BBX 5 4 1 2
BITMAP
F8
D8
D8
F8
ENDCHAR
STARTCHAR filledrect
ENCODING 9644
SWIDTH 500 0
DWIDTH 8 0
BBX 7 3 0 0
BITMAP
FE
FE
FE
ENDCHAR
STARTCHAR triagup
ENCODING 9650
SWIDTH 500 0
DWIDTH 8 0
BBX 7 7 0 1
BITMAP
10
38
38
7C
7C
FE
FE
ENDCHAR
STARTCHAR triagrt
ENCODING 9658
SWIDTH 500 0
DWIDTH 8 0
BBX 7 9 0 0
BITMAP
80
C0
E0
F8
FE
F8
E0
C0
80
ENDCHAR
STARTCHAR triagdn
ENCODING 9660
SWIDTH 500 0
DWIDTH 8 0
BBX 7 7 0 1
BITMAP
FE
FE
7C
7C
38
38
10
ENDCHAR
STARTCHAR triaglf
ENCODING 9668
SWIDTH 500 0
DWIDTH 8 0
BBX 7 9 0 0
BITMAP
02
06
0E
3E
FE
3E
0E
06
02
ENDCHAR
STARTCHAR lozenge
ENCODING 9674
SWIDTH 500 0
DWIDTH 8 0
BBX 7 7 0 1
BITMAP
10
38
6C
C6
6C
38
10
ENDCHAR
STARTCHAR circle
ENCODING 9675
SWIDTH 500 0
DWIDTH 8 0
BBX 6 6 1 1
BITMAP
78
CC
84
84
CC
78
ENDCHAR
STARTCHAR H18533
ENCODING 9679
SWIDTH 500 0
DWIDTH 8 0
BBX 6 6 1 1
BITMAP
78
FC
FC
FC
FC
78
ENDCHAR
STARTCHAR invbullet
ENCODING 9688
SWIDTH 500 0
DWIDTH 8 0
BBX 8 14 0 -3
BITMAP
FF
FF
FF
FF
FF
E7
C3
C3
E7
FF
FF
FF
FF
FF
ENDCHAR
STARTCHAR invcircle
ENCODING 9689
SWIDTH 500 0
DWIDTH 8 0
BBX 8 14 0 -3
BITMAP
FF
FF
FF
FF
C3
99
BD
BD
99
C3
FF
FF
FF
FF
ENDCHAR
STARTCHAR openbullet
ENCODING 9702
SWIDTH 500 0
DWIDTH 8 0
BBX 5 4 1 2
BITMAP
70
D8
D8
70
ENDCHAR
STARTCHAR smileface
ENCODING 9786
SWIDTH 500 0
DWIDTH 8 0
BBX 8 9 0 0
BITMAP
7E
81
A5
81
81
BD
99
81
7E
ENDCHAR
STARTCHAR invsmileface
ENCODING 9787
SWIDTH 500 0
DWIDTH 8 0
BBX 8 9 0 0
BITMAP
7E
FF
DB
FF
FF
C3
E7
FF
7E
ENDCHAR
STARTCHAR sun
ENCODING 9788
SWIDTH 500 0
DWIDTH 8 0
BBX 8 9 0 0
BITMAP
18
18
DB
3C
E7
3C
DB
18
18
ENDCHAR
STARTCHAR female
ENCODING 9792
SWIDTH 500 0
DWIDTH 8 0
BBX 6 9 1 0
BITMAP
78
CC
CC
CC
78
30
FC
30
30
ENDCHAR
STARTCHAR male
ENCODING 9794
SWIDTH 500 0
DWIDTH 8 0
BBX 7 9 0 0
BITMAP
1E
0E
1A
32
78
CC
CC
CC
78
ENDCHAR
STARTCHAR spade
ENCODING 9824
SWIDTH 500 0
DWIDTH 8 0
BBX 8 9 0 0
BITMAP
18
3C
7E
FF
FF
7E
18
18
3C
ENDCHAR
STARTCHAR club
ENCODING 9827
SWIDTH 500 0
DWIDTH 8 0
BBX 8 9 0 0
BITMAP
18
3C
3C
E7
E7
E7
18
18
3C
ENDCHAR
STARTCHAR heart
ENCODING 9829
SWIDTH 500 0
DWIDTH 8 0
BBX 7 8 0 0
BITMAP
6C
FE
FE
FE
FE
7C
38
10
ENDCHAR
STARTCHAR diamond
ENCODING 9830
SWIDTH 500 0
DWIDTH 8 0
BBX 7 7 0 1
BITMAP
10
38
7C
FE
7C
38
10
ENDCHAR
STARTCHAR musicalnote
ENCODING 9834
SWIDTH 500 0
DWIDTH 8 0
BBX 8 9 0 0
BITMAP
3F
33
3F
30
30
30
70
F0
E0
ENDCHAR
STARTCHAR musicalnotedbl
ENCODING 9835
SWIDTH 500 0
DWIDTH 8 0
BBX 8 10 0 -1
BITMAP
7F
63
7F
63
63
63
67
E7
E6
C0
ENDCHAR
STARTCHAR uni2713
ENCODING 10003
SWIDTH 500 0
DWIDTH 8 0
BBX 7 10 0 0
BITMAP
06
06
06
0C
0C
0C
98
D8
78
30
ENDCHAR
STARTCHAR uniFB01
ENCODING 64257
SWIDTH 500 0
DWIDTH 8 0
BBX 8 9 0 0
BITMAP
3E
66
60
FE
66
66
66
66
F7
ENDCHAR
STARTCHAR uniFB02
ENCODING 64258
SWIDTH 500 0
DWIDTH 8 0
BBX 8 9 0 0
BITMAP
3E
66
66
F6
66
66
66
66
F7
ENDCHAR
STARTCHAR uniFFFD
ENCODING 65533
SWIDTH 500 0
DWIDTH 8 0
BBX 8 14 0 -3
BITMAP
FF
FF
83
39
39
F3
E7
E7
FF
E7
E7
FF
FF
FF
ENDCHAR
STARTCHAR .notdef
ENCODING -1
SWIDTH 500 0
DWIDTH 8 0
BBX 8 14 0 -3
BITMAP
FF
FF
83
39
39
F3
E7
E7
FF
E7
E7
FF
FF
FF
ENDCHAR
ENDFONT
